<?xml version="1.0" encoding="utf-8"?>
<svg viewBox="29.031 305.234 416.563 143.375" xmlns="http://www.w3.org/2000/svg">
  <path d="M 126.586 418.585 C 120.986 418.585 115.766 417.365 110.926 414.925 C 106.086 412.485 101.866 409.205 98.266 405.085 C 94.666 400.965 91.866 396.325 89.866 391.165 C 87.866 386.005 86.866 380.665 86.866 375.145 C 86.866 369.385 87.866 363.925 89.866 358.765 C 91.866 353.605 94.646 349.025 98.206 345.025 C 101.766 341.025 105.966 337.885 110.806 335.605 C 115.646 333.325 120.906 332.185 126.586 332.185 C 134.826 332.185 141.626 333.905 146.986 337.345 C 152.346 340.785 156.386 345.265 159.106 350.785 L 150.826 356.545 C 148.346 351.585 144.946 347.905 140.626 345.505 C 136.306 343.105 131.546 341.905 126.346 341.905 C 122.026 341.905 118.106 342.825 114.586 344.665 C 111.066 346.505 108.046 349.005 105.526 352.165 C 103.006 355.325 101.086 358.905 99.766 362.905 C 98.446 366.905 97.786 371.065 97.786 375.385 C 97.786 379.945 98.526 384.245 100.006 388.285 C 101.486 392.325 103.586 395.885 106.306 398.965 C 109.026 402.045 112.186 404.465 115.786 406.225 C 119.386 407.985 123.266 408.865 127.426 408.865 C 132.306 408.865 136.946 407.625 141.346 405.145 C 145.746 402.665 149.906 398.865 153.826 393.745 L 153.826 404.905 C 146.146 414.025 137.066 418.585 126.586 418.585 Z M 152.506 417.985 L 152.506 383.665 L 134.146 383.665 L 134.146 375.505 L 161.626 375.505 L 161.626 417.985 L 152.506 417.985 Z" transform="matrix(1, 0, 0, 1, 0, 0)" style="fill: rgb(227, 27, 109); white-space: pre;"/>
  <path d="M 181.042 380.064 L 177.982 380.064 L 177.982 355.924 L 188.042 355.924 C 189.109 355.924 190.085 356.144 190.972 356.584 C 191.852 357.031 192.622 357.621 193.282 358.354 C 193.942 359.094 194.452 359.921 194.812 360.834 C 195.172 361.754 195.352 362.691 195.352 363.644 C 195.352 364.957 195.059 366.207 194.472 367.394 C 193.885 368.587 193.059 369.551 191.992 370.284 C 190.925 371.024 189.679 371.394 188.252 371.394 L 181.042 371.394 L 181.042 380.064 Z M 181.042 358.644 L 181.042 368.674 L 188.082 368.674 C 188.922 368.674 189.652 368.447 190.272 367.994 C 190.899 367.541 191.385 366.927 191.732 366.154 C 192.085 365.387 192.262 364.551 192.262 363.644 C 192.262 362.691 192.059 361.834 191.652 361.074 C 191.245 360.314 190.712 359.721 190.052 359.294 C 189.392 358.861 188.665 358.644 187.872 358.644 L 181.042 358.644 ZM 206.098 380.404 C 204.758 380.404 203.545 380.161 202.458 379.674 C 201.371 379.187 200.431 378.517 199.638 377.664 C 198.845 376.817 198.231 375.837 197.798 374.724 C 197.365 373.617 197.148 372.451 197.148 371.224 C 197.148 369.977 197.365 368.797 197.798 367.684 C 198.231 366.577 198.845 365.597 199.638 364.744 C 200.431 363.897 201.378 363.231 202.478 362.744 C 203.571 362.257 204.788 362.014 206.128 362.014 C 207.441 362.014 208.641 362.257 209.728 362.744 C 210.821 363.231 211.768 363.897 212.568 364.744 C 213.375 365.597 213.995 366.577 214.428 367.684 C 214.855 368.797 215.068 369.977 215.068 371.224 C 215.068 372.451 214.855 373.617 214.428 374.724 C 213.995 375.837 213.381 376.817 212.588 377.664 C 211.795 378.517 210.848 379.187 209.748 379.674 C 208.648 380.161 207.431 380.404 206.098 380.404 Z M 200.208 371.254 C 200.208 372.481 200.475 373.594 201.008 374.594 C 201.541 375.587 202.251 376.374 203.138 376.954 C 204.018 377.534 205.005 377.824 206.098 377.824 C 207.185 377.824 208.175 377.527 209.068 376.934 C 209.961 376.347 210.675 375.547 211.208 374.534 C 211.741 373.527 212.008 372.414 212.008 371.194 C 212.008 369.967 211.741 368.854 211.208 367.854 C 210.675 366.861 209.961 366.067 209.068 365.474 C 208.175 364.887 207.185 364.594 206.098 364.594 C 205.005 364.594 204.018 364.894 203.138 365.494 C 202.251 366.094 201.541 366.894 201.008 367.894 C 200.475 368.887 200.208 370.007 200.208 371.254 ZM 228.088 362.214 L 228.088 364.934 C 226.588 364.954 225.268 365.334 224.128 366.074 C 222.981 366.807 222.171 367.821 221.698 369.114 L 221.698 380.064 L 218.698 380.064 L 218.698 362.314 L 221.488 362.314 L 221.488 366.434 C 222.101 365.207 222.911 364.214 223.918 363.454 C 224.931 362.694 225.991 362.271 227.098 362.184 C 227.325 362.184 227.518 362.184 227.678 362.184 C 227.838 362.184 227.975 362.194 228.088 362.214 ZM 239.506 376.804 L 240.216 379.184 C 239.97 379.297 239.63 379.444 239.196 379.624 C 238.77 379.804 238.273 379.961 237.706 380.094 C 237.14 380.234 236.54 380.304 235.906 380.304 C 235.18 380.304 234.51 380.174 233.896 379.914 C 233.283 379.654 232.796 379.244 232.436 378.684 C 232.07 378.131 231.886 377.434 231.886 376.594 L 231.886 364.664 L 229.476 364.664 L 229.476 362.314 L 231.886 362.314 L 231.886 356.404 L 234.886 356.404 L 234.886 362.314 L 238.856 362.314 L 238.856 364.664 L 234.886 364.664 L 234.886 375.674 C 234.926 376.314 235.14 376.784 235.526 377.084 C 235.913 377.391 236.366 377.544 236.886 377.544 C 237.48 377.544 238.023 377.444 238.516 377.244 C 239.016 377.037 239.346 376.891 239.506 376.804 ZM 246.951 380.064 L 243.961 380.064 L 243.961 364.664 L 241.541 364.664 L 241.541 362.314 L 243.961 362.314 L 243.961 361.944 C 243.961 360.491 244.181 359.237 244.621 358.184 C 245.061 357.131 245.691 356.321 246.511 355.754 C 247.324 355.187 248.287 354.904 249.401 354.904 C 250.101 354.904 250.791 355.001 251.471 355.194 C 252.151 355.387 252.764 355.654 253.311 355.994 L 252.561 358.204 C 252.241 357.977 251.847 357.794 251.381 357.654 C 250.921 357.521 250.464 357.454 250.011 357.454 C 249.037 357.454 248.284 357.834 247.751 358.594 C 247.217 359.354 246.951 360.437 246.951 361.844 L 246.951 362.314 L 251.671 362.314 L 251.671 364.664 L 246.951 364.664 L 246.951 380.064 ZM 262.011 380.404 C 260.671 380.404 259.458 380.161 258.371 379.674 C 257.285 379.187 256.345 378.517 255.551 377.664 C 254.758 376.817 254.145 375.837 253.711 374.724 C 253.278 373.617 253.061 372.451 253.061 371.224 C 253.061 369.977 253.278 368.797 253.711 367.684 C 254.145 366.577 254.758 365.597 255.551 364.744 C 256.345 363.897 257.291 363.231 258.391 362.744 C 259.485 362.257 260.701 362.014 262.041 362.014 C 263.355 362.014 264.555 362.257 265.641 362.744 C 266.735 363.231 267.681 363.897 268.481 364.744 C 269.288 365.597 269.908 366.577 270.341 367.684 C 270.768 368.797 270.981 369.977 270.981 371.224 C 270.981 372.451 270.768 373.617 270.341 374.724 C 269.908 375.837 269.295 376.817 268.501 377.664 C 267.708 378.517 266.761 379.187 265.661 379.674 C 264.561 380.161 263.345 380.404 262.011 380.404 Z M 256.121 371.254 C 256.121 372.481 256.388 373.594 256.921 374.594 C 257.455 375.587 258.165 376.374 259.051 376.954 C 259.931 377.534 260.918 377.824 262.011 377.824 C 263.098 377.824 264.088 377.527 264.981 376.934 C 265.875 376.347 266.588 375.547 267.121 374.534 C 267.655 373.527 267.921 372.414 267.921 371.194 C 267.921 369.967 267.655 368.854 267.121 367.854 C 266.588 366.861 265.875 366.067 264.981 365.474 C 264.088 364.887 263.098 364.594 262.011 364.594 C 260.918 364.594 259.931 364.894 259.051 365.494 C 258.165 366.094 257.455 366.894 256.921 367.894 C 256.388 368.887 256.121 370.007 256.121 371.254 ZM 274.682 376.564 L 274.682 355.244 L 277.672 355.244 L 277.672 375.474 C 277.672 376.447 277.808 377.047 278.082 377.274 C 278.355 377.501 278.685 377.614 279.072 377.614 C 279.545 377.614 279.998 377.564 280.432 377.464 C 280.858 377.364 281.222 377.257 281.522 377.144 L 281.992 379.584 C 281.492 379.791 280.902 379.961 280.222 380.094 C 279.542 380.234 278.942 380.304 278.422 380.304 C 277.268 380.304 276.358 379.974 275.692 379.314 C 275.018 378.661 274.682 377.744 274.682 376.564 ZM 287.333 380.064 L 284.333 380.064 L 284.333 362.314 L 287.333 362.314 L 287.333 380.064 Z M 287.333 358.984 L 284.333 358.984 L 284.333 355.244 L 287.333 355.244 L 287.333 358.984 ZM 299.91 380.404 C 298.57 380.404 297.357 380.161 296.27 379.674 C 295.184 379.187 294.244 378.517 293.45 377.664 C 292.657 376.817 292.044 375.837 291.61 374.724 C 291.177 373.617 290.96 372.451 290.96 371.224 C 290.96 369.977 291.177 368.797 291.61 367.684 C 292.044 366.577 292.657 365.597 293.45 364.744 C 294.244 363.897 295.19 363.231 296.29 362.744 C 297.384 362.257 298.6 362.014 299.94 362.014 C 301.254 362.014 302.454 362.257 303.54 362.744 C 304.634 363.231 305.58 363.897 306.38 364.744 C 307.187 365.597 307.807 366.577 308.24 367.684 C 308.667 368.797 308.88 369.977 308.88 371.224 C 308.88 372.451 308.667 373.617 308.24 374.724 C 307.807 375.837 307.194 376.817 306.4 377.664 C 305.607 378.517 304.66 379.187 303.56 379.674 C 302.46 380.161 301.244 380.404 299.91 380.404 Z M 294.02 371.254 C 294.02 372.481 294.287 373.594 294.82 374.594 C 295.354 375.587 296.064 376.374 296.95 376.954 C 297.83 377.534 298.817 377.824 299.91 377.824 C 300.997 377.824 301.987 377.527 302.88 376.934 C 303.774 376.347 304.487 375.547 305.02 374.534 C 305.554 373.527 305.82 372.414 305.82 371.194 C 305.82 369.967 305.554 368.854 305.02 367.854 C 304.487 366.861 303.774 366.067 302.88 365.474 C 301.987 364.887 300.997 364.594 299.91 364.594 C 298.817 364.594 297.83 364.894 296.95 365.494 C 296.064 366.094 295.354 366.894 294.82 367.894 C 294.287 368.887 294.02 370.007 294.02 371.254 Z" transform="matrix(1, 0, 0, 1, 0, 0)" style="fill: rgb(51, 51, 51); white-space: pre;"/>
  <path d="M 190.27 385.366 L 191.93 385.366 L 191.93 402.406 L 190.27 402.406 L 190.27 394.436 L 180.17 394.436 L 180.17 402.406 L 178.49 402.406 L 178.49 385.366 L 180.17 385.366 L 180.17 392.946 L 190.27 392.946 L 190.27 385.366 ZM 201.063 402.646 C 200.169 402.646 199.336 402.473 198.563 402.126 C 197.796 401.786 197.133 401.316 196.573 400.716 C 196.013 400.116 195.576 399.423 195.263 398.636 C 194.956 397.856 194.803 397.016 194.803 396.116 C 194.803 394.949 195.069 393.879 195.603 392.906 C 196.136 391.926 196.876 391.146 197.823 390.566 C 198.769 389.979 199.843 389.686 201.043 389.686 C 202.269 389.686 203.343 389.983 204.263 390.576 C 205.183 391.169 205.909 391.949 206.443 392.916 C 206.969 393.883 207.233 394.943 207.233 396.096 C 207.233 396.223 207.233 396.346 207.233 396.466 C 207.233 396.586 207.223 396.679 207.203 396.746 L 196.503 396.746 C 196.583 397.639 196.836 398.433 197.263 399.126 C 197.683 399.826 198.233 400.379 198.913 400.786 C 199.593 401.193 200.333 401.396 201.133 401.396 C 201.953 401.396 202.726 401.189 203.453 400.776 C 204.179 400.356 204.686 399.813 204.973 399.146 L 206.393 399.526 C 206.133 400.119 205.739 400.656 205.213 401.136 C 204.686 401.616 204.066 401.986 203.353 402.246 C 202.639 402.513 201.876 402.646 201.063 402.646 Z M 196.453 395.566 L 205.693 395.566 C 205.633 394.653 205.389 393.853 204.963 393.166 C 204.536 392.479 203.983 391.939 203.303 391.546 C 202.623 391.153 201.876 390.956 201.063 390.956 C 200.249 390.956 199.506 391.153 198.833 391.546 C 198.159 391.939 197.609 392.483 197.183 393.176 C 196.763 393.876 196.519 394.673 196.453 395.566 ZM 209.815 400.126 L 209.815 384.886 L 211.445 384.886 L 211.445 399.576 C 211.445 400.196 211.558 400.603 211.785 400.796 C 212.012 400.989 212.285 401.086 212.605 401.086 C 212.892 401.086 213.178 401.053 213.465 400.986 C 213.752 400.926 213.998 400.863 214.205 400.796 L 214.495 402.116 C 214.195 402.243 213.825 402.346 213.385 402.426 C 212.945 402.506 212.565 402.546 212.245 402.546 C 211.505 402.546 210.915 402.333 210.475 401.906 C 210.035 401.473 209.815 400.879 209.815 400.126 ZM 216.34 400.126 L 216.34 384.886 L 217.97 384.886 L 217.97 399.576 C 217.97 400.196 218.083 400.603 218.31 400.796 C 218.537 400.989 218.81 401.086 219.13 401.086 C 219.417 401.086 219.703 401.053 219.99 400.986 C 220.277 400.926 220.523 400.863 220.73 400.796 L 221.02 402.116 C 220.72 402.243 220.35 402.346 219.91 402.426 C 219.47 402.506 219.09 402.546 218.77 402.546 C 218.03 402.546 217.44 402.333 217 401.906 C 216.56 401.473 216.34 400.879 216.34 400.126 ZM 228.125 402.646 C 227.225 402.646 226.395 402.473 225.635 402.126 C 224.875 401.786 224.222 401.316 223.675 400.716 C 223.122 400.116 222.692 399.426 222.385 398.646 C 222.085 397.873 221.935 397.053 221.935 396.186 C 221.935 395.293 222.085 394.459 222.385 393.686 C 222.692 392.906 223.125 392.216 223.685 391.616 C 224.245 391.016 224.905 390.546 225.665 390.206 C 226.425 389.859 227.252 389.686 228.145 389.686 C 229.045 389.686 229.869 389.859 230.615 390.206 C 231.369 390.546 232.025 391.016 232.585 391.616 C 233.145 392.216 233.579 392.906 233.885 393.686 C 234.185 394.459 234.335 395.293 234.335 396.186 C 234.335 397.053 234.185 397.873 233.885 398.646 C 233.579 399.426 233.149 400.116 232.595 400.716 C 232.049 401.316 231.395 401.786 230.635 402.126 C 229.875 402.473 229.039 402.646 228.125 402.646 Z M 223.585 396.216 C 223.585 397.143 223.789 397.986 224.195 398.746 C 224.609 399.506 225.159 400.106 225.845 400.546 C 226.532 400.986 227.292 401.206 228.125 401.206 C 228.959 401.206 229.719 400.983 230.405 400.536 C 231.092 400.089 231.642 399.476 232.055 398.696 C 232.475 397.923 232.685 397.079 232.685 396.166 C 232.685 395.239 232.475 394.393 232.055 393.626 C 231.642 392.853 231.092 392.243 230.405 391.796 C 229.719 391.349 228.959 391.126 228.125 391.126 C 227.292 391.126 226.535 391.359 225.855 391.826 C 225.175 392.286 224.629 392.896 224.215 393.656 C 223.795 394.416 223.585 395.269 223.585 396.216 ZM 237.69 404.346 L 236.85 404.346 L 237.26 402.336 L 236.71 402.336 L 236.71 400.056 L 238.29 400.056 L 238.29 402.336 L 237.69 404.346 ZM 250.125 402.406 L 248.445 402.406 L 248.445 385.366 L 250.125 385.366 L 250.125 402.406 ZM 255.324 389.906 L 253.914 389.906 L 253.914 385.226 L 255.324 385.226 L 255.324 389.906 ZM 277.38 395.086 L 277.38 402.406 L 275.75 402.406 L 275.75 395.426 C 275.75 393.966 275.517 392.893 275.05 392.206 C 274.59 391.519 273.904 391.176 272.99 391.176 C 272.044 391.176 271.2 391.513 270.46 392.186 C 269.714 392.853 269.187 393.716 268.88 394.776 L 268.88 402.406 L 267.25 402.406 L 267.25 395.426 C 267.25 393.953 267.027 392.876 266.58 392.196 C 266.134 391.516 265.447 391.176 264.52 391.176 C 263.587 391.176 262.747 391.503 262 392.156 C 261.247 392.816 260.717 393.679 260.41 394.746 L 260.41 402.406 L 258.78 402.406 L 258.78 389.906 L 260.27 389.906 L 260.27 392.736 C 260.797 391.756 261.474 391.003 262.3 390.476 C 263.12 389.949 264.034 389.686 265.04 389.686 C 266.08 389.686 266.92 389.983 267.56 390.576 C 268.2 391.169 268.594 391.946 268.74 392.906 C 269.314 391.846 270.007 391.046 270.82 390.506 C 271.627 389.959 272.54 389.686 273.56 389.686 C 274.267 389.686 274.864 389.813 275.35 390.066 C 275.837 390.326 276.23 390.693 276.53 391.166 C 276.824 391.633 277.04 392.199 277.18 392.866 C 277.314 393.533 277.38 394.273 277.38 395.086 Z" transform="matrix(1, 0, 0, 1, 0, 0)" style="fill: rgb(51, 51, 51); white-space: pre;"/>
  <path d="M 288.654 402.821 L 286.974 402.821 L 286.974 385.801 L 288.654 385.801 L 288.654 395.691 L 298.034 385.781 L 299.884 385.781 L 292.924 393.271 L 300.244 402.821 L 298.344 402.821 L 291.844 394.281 L 288.654 397.591 L 288.654 402.821 ZM 306.716 403.061 C 305.823 403.061 304.989 402.888 304.216 402.541 C 303.449 402.201 302.786 401.731 302.226 401.131 C 301.666 400.531 301.229 399.838 300.916 399.051 C 300.609 398.271 300.456 397.431 300.456 396.531 C 300.456 395.364 300.723 394.294 301.256 393.321 C 301.789 392.341 302.529 391.561 303.476 390.981 C 304.423 390.394 305.496 390.101 306.696 390.101 C 307.923 390.101 308.996 390.398 309.916 390.991 C 310.836 391.584 311.563 392.364 312.096 393.331 C 312.623 394.298 312.886 395.358 312.886 396.511 C 312.886 396.638 312.886 396.761 312.886 396.881 C 312.886 397.001 312.876 397.094 312.856 397.161 L 302.156 397.161 C 302.236 398.054 302.489 398.848 302.916 399.541 C 303.336 400.241 303.886 400.794 304.566 401.201 C 305.246 401.608 305.986 401.811 306.786 401.811 C 307.606 401.811 308.379 401.604 309.106 401.191 C 309.833 400.771 310.339 400.228 310.626 399.561 L 312.046 399.941 C 311.786 400.534 311.393 401.071 310.866 401.551 C 310.339 402.031 309.719 402.401 309.006 402.661 C 308.293 402.928 307.529 403.061 306.716 403.061 Z M 302.106 395.981 L 311.346 395.981 C 311.286 395.068 311.043 394.268 310.616 393.581 C 310.189 392.894 309.636 392.354 308.956 391.961 C 308.276 391.568 307.529 391.371 306.716 391.371 C 305.903 391.371 305.159 391.568 304.486 391.961 C 303.813 392.354 303.263 392.898 302.836 393.591 C 302.416 394.291 302.173 395.088 302.106 395.981 ZM 320.532 402.821 L 318.782 402.821 L 313.722 390.321 L 315.422 390.321 L 319.692 401.191 L 323.992 390.321 L 325.602 390.321 L 320.532 402.821 ZM 329.479 402.821 L 327.849 402.821 L 327.849 390.321 L 329.479 390.321 L 329.479 402.821 Z M 329.479 387.701 L 327.849 387.701 L 327.849 385.301 L 329.479 385.301 L 329.479 387.701 ZM 343.589 395.501 L 343.589 402.821 L 341.959 402.821 L 341.959 395.841 C 341.959 394.368 341.742 393.291 341.309 392.611 C 340.875 391.931 340.195 391.591 339.269 391.591 C 338.629 391.591 337.999 391.748 337.379 392.061 C 336.752 392.368 336.202 392.791 335.729 393.331 C 335.255 393.864 334.915 394.474 334.709 395.161 L 334.709 402.821 L 333.079 402.821 L 333.079 390.321 L 334.569 390.321 L 334.569 393.151 C 334.902 392.544 335.342 392.011 335.889 391.551 C 336.429 391.098 337.045 390.741 337.739 390.481 C 338.425 390.228 339.135 390.101 339.869 390.101 C 340.555 390.101 341.139 390.228 341.619 390.481 C 342.099 390.741 342.485 391.108 342.779 391.581 C 343.065 392.048 343.272 392.614 343.399 393.281 C 343.525 393.948 343.589 394.688 343.589 395.501 ZM 360.362 402.941 C 359.222 402.941 358.166 402.698 357.192 402.211 C 356.212 401.724 355.362 401.064 354.642 400.231 C 353.922 399.398 353.369 398.468 352.982 397.441 C 352.589 396.421 352.392 395.368 352.392 394.281 C 352.392 393.128 352.589 392.034 352.982 391.001 C 353.369 389.968 353.916 389.051 354.622 388.251 C 355.329 387.451 356.162 386.821 357.122 386.361 C 358.082 385.894 359.129 385.661 360.262 385.661 C 361.942 385.661 363.309 386.004 364.362 386.691 C 365.422 387.378 366.222 388.274 366.762 389.381 L 365.472 390.241 C 364.926 389.188 364.196 388.414 363.282 387.921 C 362.376 387.421 361.362 387.171 360.242 387.171 C 359.296 387.171 358.442 387.371 357.682 387.771 C 356.922 388.171 356.269 388.708 355.722 389.381 C 355.182 390.054 354.772 390.814 354.492 391.661 C 354.212 392.508 354.072 393.388 354.072 394.301 C 354.072 395.261 354.232 396.168 354.552 397.021 C 354.872 397.881 355.329 398.641 355.922 399.301 C 356.509 399.968 357.192 400.488 357.972 400.861 C 358.746 401.241 359.582 401.431 360.482 401.431 C 361.522 401.431 362.506 401.171 363.432 400.651 C 364.359 400.131 365.246 399.328 366.092 398.241 L 366.092 400.011 C 364.479 401.964 362.569 402.941 360.362 402.941 Z M 365.832 402.821 L 365.832 395.741 L 362.042 395.741 L 362.042 394.441 L 367.242 394.441 L 367.242 402.821 L 365.832 402.821 ZM 375.689 403.061 C 374.789 403.061 373.959 402.888 373.199 402.541 C 372.439 402.201 371.786 401.731 371.239 401.131 C 370.686 400.531 370.256 399.841 369.949 399.061 C 369.649 398.288 369.499 397.468 369.499 396.601 C 369.499 395.708 369.649 394.874 369.949 394.101 C 370.256 393.321 370.689 392.631 371.249 392.031 C 371.809 391.431 372.469 390.961 373.229 390.621 C 373.989 390.274 374.816 390.101 375.709 390.101 C 376.609 390.101 377.433 390.274 378.179 390.621 C 378.933 390.961 379.589 391.431 380.149 392.031 C 380.709 392.631 381.143 393.321 381.449 394.101 C 381.749 394.874 381.899 395.708 381.899 396.601 C 381.899 397.468 381.749 398.288 381.449 399.061 C 381.143 399.841 380.713 400.531 380.159 401.131 C 379.613 401.731 378.959 402.201 378.199 402.541 C 377.439 402.888 376.603 403.061 375.689 403.061 Z M 371.149 396.631 C 371.149 397.558 371.353 398.401 371.759 399.161 C 372.173 399.921 372.723 400.521 373.409 400.961 C 374.096 401.401 374.856 401.621 375.689 401.621 C 376.523 401.621 377.283 401.398 377.969 400.951 C 378.656 400.504 379.206 399.891 379.619 399.111 C 380.039 398.338 380.249 397.494 380.249 396.581 C 380.249 395.654 380.039 394.808 379.619 394.041 C 379.206 393.268 378.656 392.658 377.969 392.211 C 377.283 391.764 376.523 391.541 375.689 391.541 C 374.856 391.541 374.099 391.774 373.419 392.241 C 372.739 392.701 372.193 393.311 371.779 394.071 C 371.359 394.831 371.149 395.684 371.149 396.631 ZM 403.233 395.501 L 403.233 402.821 L 401.603 402.821 L 401.603 395.841 C 401.603 394.381 401.37 393.308 400.903 392.621 C 400.443 391.934 399.757 391.591 398.843 391.591 C 397.897 391.591 397.053 391.928 396.313 392.601 C 395.567 393.268 395.04 394.131 394.733 395.191 L 394.733 402.821 L 393.103 402.821 L 393.103 395.841 C 393.103 394.368 392.88 393.291 392.433 392.611 C 391.987 391.931 391.3 391.591 390.373 391.591 C 389.44 391.591 388.6 391.918 387.853 392.571 C 387.1 393.231 386.57 394.094 386.263 395.161 L 386.263 402.821 L 384.633 402.821 L 384.633 390.321 L 386.123 390.321 L 386.123 393.151 C 386.65 392.171 387.327 391.418 388.153 390.891 C 388.973 390.364 389.887 390.101 390.893 390.101 C 391.933 390.101 392.773 390.398 393.413 390.991 C 394.053 391.584 394.447 392.361 394.593 393.321 C 395.167 392.261 395.86 391.461 396.673 390.921 C 397.48 390.374 398.393 390.101 399.413 390.101 C 400.12 390.101 400.717 390.228 401.203 390.481 C 401.69 390.741 402.083 391.108 402.383 391.581 C 402.677 392.048 402.893 392.614 403.033 393.281 C 403.167 393.948 403.233 394.688 403.233 395.501 ZM 412.8 403.061 C 411.827 403.061 410.923 402.808 410.09 402.301 C 409.257 401.801 408.607 401.168 408.14 400.401 L 408.14 402.821 L 406.68 402.821 L 406.68 385.301 L 408.31 385.301 L 408.31 392.931 C 408.87 392.084 409.543 391.401 410.33 390.881 C 411.11 390.361 412.02 390.101 413.06 390.101 C 413.94 390.101 414.73 390.284 415.43 390.651 C 416.123 391.018 416.72 391.511 417.22 392.131 C 417.713 392.744 418.087 393.441 418.34 394.221 C 418.6 394.994 418.73 395.788 418.73 396.601 C 418.73 397.481 418.58 398.308 418.28 399.081 C 417.987 399.848 417.567 400.531 417.02 401.131 C 416.48 401.731 415.853 402.201 415.14 402.541 C 414.427 402.888 413.647 403.061 412.8 403.061 Z M 412.42 401.621 C 413.087 401.621 413.71 401.484 414.29 401.211 C 414.863 400.938 415.36 400.561 415.78 400.081 C 416.193 399.601 416.513 399.061 416.74 398.461 C 416.96 397.861 417.07 397.241 417.07 396.601 C 417.07 395.721 416.883 394.894 416.51 394.121 C 416.13 393.348 415.61 392.724 414.95 392.251 C 414.283 391.778 413.503 391.541 412.61 391.541 C 411.97 391.541 411.373 391.684 410.82 391.971 C 410.267 392.258 409.78 392.638 409.36 393.111 C 408.933 393.584 408.583 394.101 408.31 394.661 L 408.31 398.551 C 408.377 398.984 408.547 399.388 408.82 399.761 C 409.087 400.134 409.427 400.458 409.84 400.731 C 410.247 401.004 410.673 401.221 411.12 401.381 C 411.567 401.541 412 401.621 412.42 401.621 ZM 426.812 403.061 C 425.912 403.061 425.082 402.888 424.322 402.541 C 423.562 402.201 422.909 401.731 422.362 401.131 C 421.809 400.531 421.379 399.841 421.072 399.061 C 420.772 398.288 420.622 397.468 420.622 396.601 C 420.622 395.708 420.772 394.874 421.072 394.101 C 421.379 393.321 421.812 392.631 422.372 392.031 C 422.932 391.431 423.592 390.961 424.352 390.621 C 425.112 390.274 425.939 390.101 426.832 390.101 C 427.732 390.101 428.555 390.274 429.302 390.621 C 430.055 390.961 430.712 391.431 431.272 392.031 C 431.832 392.631 432.265 393.321 432.572 394.101 C 432.872 394.874 433.022 395.708 433.022 396.601 C 433.022 397.468 432.872 398.288 432.572 399.061 C 432.265 399.841 431.835 400.531 431.282 401.131 C 430.735 401.731 430.082 402.201 429.322 402.541 C 428.562 402.888 427.725 403.061 426.812 403.061 Z M 422.272 396.631 C 422.272 397.558 422.475 398.401 422.882 399.161 C 423.295 399.921 423.845 400.521 424.532 400.961 C 425.219 401.401 425.979 401.621 426.812 401.621 C 427.645 401.621 428.405 401.398 429.092 400.951 C 429.779 400.504 430.329 399.891 430.742 399.111 C 431.162 398.338 431.372 397.494 431.372 396.581 C 431.372 395.654 431.162 394.808 430.742 394.041 C 430.329 393.268 429.779 392.658 429.092 392.211 C 428.405 391.764 427.645 391.541 426.812 391.541 C 425.979 391.541 425.222 391.774 424.542 392.241 C 423.862 392.701 423.315 393.311 422.902 394.071 C 422.482 394.831 422.272 395.684 422.272 396.631 ZM 439.856 403.061 C 438.836 403.061 437.886 402.894 437.006 402.561 C 436.126 402.221 435.366 401.708 434.726 401.021 L 435.396 399.871 C 436.103 400.524 436.809 401.001 437.516 401.301 C 438.229 401.594 438.986 401.741 439.786 401.741 C 440.766 401.741 441.559 401.544 442.166 401.151 C 442.773 400.758 443.076 400.194 443.076 399.461 C 443.076 398.968 442.929 398.588 442.636 398.321 C 442.336 398.054 441.909 397.838 441.356 397.671 C 440.809 397.504 440.149 397.324 439.376 397.131 C 438.516 396.891 437.793 396.641 437.206 396.381 C 436.626 396.114 436.186 395.778 435.886 395.371 C 435.593 394.964 435.446 394.431 435.446 393.771 C 435.446 392.958 435.649 392.281 436.056 391.741 C 436.463 391.208 437.023 390.801 437.736 390.521 C 438.449 390.241 439.246 390.101 440.126 390.101 C 441.086 390.101 441.933 390.254 442.666 390.561 C 443.406 390.861 444.006 391.284 444.466 391.831 L 443.676 392.931 C 443.229 392.418 442.696 392.038 442.076 391.791 C 441.463 391.544 440.779 391.421 440.026 391.421 C 439.513 391.421 439.026 391.488 438.566 391.621 C 438.099 391.761 437.719 391.988 437.426 392.301 C 437.126 392.608 436.976 393.034 436.976 393.581 C 436.976 394.028 437.089 394.374 437.316 394.621 C 437.543 394.874 437.879 395.084 438.326 395.251 C 438.773 395.418 439.323 395.598 439.976 395.791 C 440.923 396.044 441.749 396.304 442.456 396.571 C 443.156 396.831 443.699 397.171 444.086 397.591 C 444.466 398.004 444.656 398.588 444.656 399.341 C 444.656 400.508 444.216 401.421 443.336 402.081 C 442.456 402.734 441.296 403.061 439.856 403.061 Z" transform="matrix(1, 0, 0, 1, 0, 0)" style="fill: rgb(227, 27, 109); white-space: pre;"/>
  <path d="M -86.785 420.298 L -97.585 420.298 L -97.585 335.218 L -86.785 335.218 L -86.785 382.258 L -42.865 335.098 L -31.225 335.098 L -65.425 372.658 L -29.305 420.298 L -41.425 420.298 L -72.265 379.138 L -86.785 394.258 L -86.785 420.298 Z" transform="matrix(-1, 0, 0, 1, 0, 0)" style="fill: rgb(51, 51, 51); white-space: pre;"/>
</svg>