<?xml version="1.0" encoding="utf-8"?>
<svg viewBox="43.655 7.567 454.599 136.787" xmlns="http://www.w3.org/2000/svg">
  <path d="M 172.43699353027344 125.63499725341796 Q 170.22699353027343 125.63499725341796 168.71899353027345 124.86799725341797 Q 167.21099353027344 124.10099725341797 166.30099353027344 122.78799725341797 Q 165.39099353027345 121.47499725341797 164.97499353027345 119.81099725341797 Q 164.55899353027343 118.14699725341796 164.55899353027343 116.37899725341796 L 164.55899353027343 107.04499725341796 L 166.89899353027343 107.04499725341796 L 166.89899353027343 116.37899725341796 Q 166.89899353027343 117.73099725341797 167.17199353027343 119.01799725341797 Q 167.44499353027345 120.30499725341797 168.06899353027345 121.31899725341796 Q 168.69299353027344 122.33299725341797 169.75899353027344 122.93099725341797 Q 170.82499353027345 123.52899725341797 172.41099353027343 123.52899725341797 Q 174.02299353027342 123.52899725341797 175.08899353027343 122.91799725341797 Q 176.15499353027343 122.30699725341796 176.77899353027345 121.27999725341797 Q 177.40299353027345 120.25299725341797 177.67599353027344 118.97899725341797 Q 177.94899353027344 117.70499725341797 177.94899353027344 116.37899725341796 L 177.94899353027344 107.04499725341796 L 180.28899353027344 107.04499725341796 L 180.28899353027344 116.37899725341796 Q 180.28899353027344 118.25099725341796 179.85999353027344 119.92799725341797 Q 179.43099353027344 121.60499725341796 178.49499353027343 122.87899725341796 Q 177.55899353027343 124.15299725341796 176.06399353027345 124.89399725341796 Q 174.56899353027345 125.63499725341796 172.43699353027344 125.63499725341796 Z M 199.2752077636719 107.04499725341796 L 199.2752077636719 125.50499725341797 L 196.93520776367188 125.50499725341797 L 196.93520776367188 117.10699725341797 L 186.7692077636719 117.10699725341797 L 186.7692077636719 125.50499725341797 L 184.42920776367188 125.50499725341797 L 184.42920776367188 107.04499725341796 L 186.7692077636719 107.04499725341796 L 186.7692077636719 115.02699725341796 L 196.93520776367188 115.02699725341796 L 196.93520776367188 107.04499725341796 Z M 211.1836414794922 125.63499725341796 Q 209.23364147949218 125.63499725341796 207.6476414794922 124.85499725341796 Q 206.06164147949218 124.07499725341796 204.9046414794922 122.73599725341796 Q 203.7476414794922 121.39699725341796 203.1236414794922 119.71999725341797 Q 202.4996414794922 118.04299725341797 202.4996414794922 116.27499725341796 Q 202.4996414794922 114.42899725341798 203.16264147949218 112.75199725341797 Q 203.8256414794922 111.07499725341796 205.00864147949218 109.76199725341797 Q 206.19164147949218 108.44899725341797 207.7776414794922 107.68199725341796 Q 209.3636414794922 106.91499725341797 211.2356414794922 106.91499725341797 Q 213.18564147949218 106.91499725341797 214.7716414794922 107.72099725341796 Q 216.3576414794922 108.52699725341796 217.50164147949218 109.87899725341796 Q 218.64564147949218 111.23099725341797 219.26964147949218 112.89499725341797 Q 219.8936414794922 114.55899725341797 219.8936414794922 116.30099725341796 Q 219.8936414794922 118.14699725341796 219.2436414794922 119.82399725341797 Q 218.5936414794922 121.50099725341796 217.4106414794922 122.81399725341797 Q 216.22764147949218 124.12699725341797 214.6416414794922 124.88099725341797 Q 213.05564147949218 125.63499725341796 211.1836414794922 125.63499725341796 Z M 204.86564147949218 116.27499725341796 Q 204.86564147949218 117.67899725341798 205.3206414794922 118.99199725341796 Q 205.77564147949218 120.30499725341797 206.6076414794922 121.31899725341796 Q 207.4396414794922 122.33299725341797 208.60964147949218 122.93099725341797 Q 209.7796414794922 123.52899725341797 211.20964147949218 123.52899725341797 Q 212.69164147949218 123.52899725341797 213.8616414794922 122.90499725341797 Q 215.03164147949218 122.28099725341796 215.8506414794922 121.24099725341797 Q 216.66964147949218 120.20099725341797 217.0986414794922 118.90099725341797 Q 217.5276414794922 117.60099725341797 217.5276414794922 116.27499725341796 Q 217.5276414794922 114.87099725341797 217.07264147949218 113.57099725341797 Q 216.6176414794922 112.27099725341796 215.7726414794922 111.24399725341797 Q 214.9276414794922 110.21699725341797 213.77064147949218 109.63199725341796 Q 212.61364147949217 109.04699725341797 211.20964147949218 109.04699725341797 Q 209.72764147949218 109.04699725341797 208.5576414794922 109.65799725341796 Q 207.38764147949217 110.26899725341796 206.5686414794922 111.30899725341797 Q 205.7496414794922 112.34899725341796 205.3076414794922 113.63599725341797 Q 204.86564147949218 114.92299725341798 204.86564147949218 116.27499725341796 Z M 234.4229501953125 125.50499725341797 L 232.1349501953125 125.50499725341797 L 232.1349501953125 117.91299725341797 Q 232.1349501953125 115.75499725341797 231.4719501953125 114.75399725341796 Q 230.8089501953125 113.75299725341797 229.45695019531252 113.75299725341797 Q 228.5209501953125 113.75299725341797 227.5979501953125 114.22099725341796 Q 226.6749501953125 114.68899725341797 225.9599501953125 115.48199725341797 Q 225.2449501953125 116.27499725341796 224.93295019531251 117.31499725341797 L 224.93295019531251 125.50499725341797 L 222.6449501953125 125.50499725341797 L 222.6449501953125 111.93299725341797 L 224.7249501953125 111.93299725341797 L 224.7249501953125 114.84499725341797 Q 225.2709501953125 113.88299725341797 226.1289501953125 113.18099725341797 Q 226.9869501953125 112.47899725341797 228.0789501953125 112.08899725341797 Q 229.1709501953125 111.69899725341797 230.3669501953125 111.69899725341797 Q 231.5369501953125 111.69899725341797 232.3299501953125 112.12799725341797 Q 233.1229501953125 112.55699725341796 233.5779501953125 113.32399725341797 Q 234.0329501953125 114.09099725341797 234.2279501953125 115.13099725341797 Q 234.4229501953125 116.17099725341797 234.4229501953125 117.39299725341797 Z M 243.97971606445313 125.76499725341797 Q 242.44571606445314 125.76499725341797 241.1847160644531 125.20599725341796 Q 239.92371606445312 124.64699725341796 239.00071606445312 123.67199725341797 Q 238.0777160644531 122.69699725341796 237.57071606445314 121.42299725341798 Q 237.06371606445313 120.14899725341797 237.06371606445313 118.71899725341797 Q 237.06371606445313 116.79499725341796 237.94771606445312 115.20899725341796 Q 238.83171606445313 113.62299725341796 240.4047160644531 112.66099725341797 Q 241.97771606445312 111.69899725341797 244.00571606445314 111.69899725341797 Q 246.0597160644531 111.69899725341797 247.58071606445313 112.67399725341797 Q 249.10171606445311 113.64899725341797 249.9467160644531 115.22199725341797 Q 250.7917160644531 116.79499725341796 250.7917160644531 118.61499725341797 Q 250.7917160644531 118.87499725341797 250.77871606445314 119.12199725341797 Q 250.76571606445313 119.36899725341797 250.73971606445312 119.49899725341797 L 239.48171606445314 119.49899725341797 Q 239.58571606445312 120.82499725341796 240.22271606445312 121.85199725341796 Q 240.85971606445312 122.87899725341796 241.87371606445313 123.46399725341797 Q 242.88771606445312 124.04899725341797 244.05771606445313 124.04899725341797 Q 245.30571606445312 124.04899725341797 246.41071606445314 123.42499725341797 Q 247.51571606445313 122.80099725341798 247.93171606445313 121.78699725341797 L 249.90771606445313 122.33299725341797 Q 249.46571606445312 123.32099725341797 248.59471606445314 124.10099725341797 Q 247.72371606445313 124.88099725341797 246.54071606445314 125.32299725341797 Q 245.35771606445311 125.76499725341797 243.97971606445313 125.76499725341797 Z M 239.40371606445314 117.91299725341797 L 248.65971606445314 117.91299725341797 Q 248.55571606445312 116.58699725341796 247.90571606445312 115.57299725341797 Q 247.2557160644531 114.55899725341797 246.24171606445313 113.98699725341797 Q 245.22771606445312 113.41499725341797 244.00571606445314 113.41499725341797 Q 242.8097160644531 113.41499725341797 241.79571606445313 113.98699725341797 Q 240.78171606445312 114.55899725341797 240.14471606445312 115.57299725341797 Q 239.50771606445312 116.58699725341796 239.40371606445314 117.91299725341797 Z M 271.118162109375 110.91899725341797 Q 270.806162109375 110.55499725341797 270.286162109375 110.21699725341797 Q 269.766162109375 109.87899725341796 269.116162109375 109.60599725341797 Q 268.466162109375 109.33299725341797 267.699162109375 109.16399725341796 Q 266.932162109375 108.99499725341796 266.100162109375 108.99499725341796 Q 263.968162109375 108.99499725341796 262.954162109375 109.80099725341796 Q 261.940162109375 110.60699725341797 261.940162109375 112.01099725341797 Q 261.940162109375 112.99899725341797 262.460162109375 113.57099725341797 Q 262.980162109375 114.14299725341797 264.059162109375 114.50699725341796 Q 265.138162109375 114.87099725341797 266.802162109375 115.26099725341797 Q 268.726162109375 115.67699725341797 270.130162109375 116.27499725341796 Q 271.534162109375 116.87299725341796 272.288162109375 117.87399725341797 Q 273.042162109375 118.87499725341797 273.042162109375 120.53899725341797 Q 273.042162109375 121.86499725341797 272.535162109375 122.83999725341796 Q 272.028162109375 123.81499725341797 271.118162109375 124.45199725341797 Q 270.208162109375 125.08899725341797 268.986162109375 125.38799725341796 Q 267.764162109375 125.68699725341797 266.33416210937503 125.68699725341797 Q 264.930162109375 125.68699725341797 263.591162109375 125.38799725341796 Q 262.252162109375 125.08899725341797 261.056162109375 124.51699725341797 Q 259.860162109375 123.94499725341797 258.820162109375 123.08699725341796 L 259.938162109375 121.11099725341796 Q 260.354162109375 121.55299725341797 261.017162109375 121.98199725341797 Q 261.680162109375 122.41099725341797 262.525162109375 122.77499725341796 Q 263.370162109375 123.13899725341797 264.358162109375 123.35999725341797 Q 265.346162109375 123.58099725341796 266.386162109375 123.58099725341796 Q 268.362162109375 123.58099725341796 269.454162109375 122.86599725341797 Q 270.546162109375 122.15099725341797 270.546162109375 120.77299725341797 Q 270.546162109375 119.73299725341796 269.935162109375 119.10899725341797 Q 269.324162109375 118.48499725341797 268.128162109375 118.06899725341796 Q 266.932162109375 117.65299725341796 265.216162109375 117.23699725341797 Q 263.344162109375 116.76899725341796 262.070162109375 116.20999725341797 Q 260.796162109375 115.65099725341797 260.159162109375 114.74099725341797 Q 259.522162109375 113.83099725341796 259.522162109375 112.37499725341797 Q 259.522162109375 110.60699725341797 260.380162109375 109.38499725341796 Q 261.238162109375 108.16299725341797 262.746162109375 107.53899725341796 Q 264.254162109375 106.91499725341797 266.152162109375 106.91499725341797 Q 267.400162109375 106.91499725341797 268.479162109375 107.17499725341797 Q 269.558162109375 107.43499725341798 270.494162109375 107.90299725341796 Q 271.430162109375 108.37099725341797 272.210162109375 109.02099725341796 Z M 287.5189584960938 125.50499725341797 L 285.23095849609376 125.50499725341797 L 285.23095849609376 117.91299725341797 Q 285.23095849609376 115.83299725341797 284.4899584960938 114.79299725341797 Q 283.74895849609373 113.75299725341797 282.37095849609375 113.75299725341797 Q 281.48695849609373 113.75299725341797 280.58995849609374 114.22099725341796 Q 279.69295849609375 114.68899725341797 279.01695849609376 115.48199725341797 Q 278.3409584960938 116.27499725341796 278.02895849609376 117.31499725341797 L 278.02895849609376 125.50499725341797 L 275.74095849609375 125.50499725341797 L 275.74095849609375 106.52499725341796 L 278.02895849609376 106.52499725341796 L 278.02895849609376 114.84499725341797 Q 278.83495849609375 113.38899725341797 280.22595849609377 112.54399725341797 Q 281.61695849609373 111.69899725341797 283.22895849609375 111.69899725341797 Q 284.45095849609373 111.69899725341797 285.26995849609375 112.12799725341797 Q 286.08895849609377 112.55699725341796 286.58295849609374 113.33699725341796 Q 287.07695849609377 114.11699725341796 287.29795849609377 115.14399725341796 Q 287.5189584960938 116.17099725341797 287.5189584960938 117.39299725341797 Z M 296.9977243652344 125.76499725341797 Q 295.4637243652344 125.76499725341797 294.2157243652344 125.20599725341796 Q 292.9677243652344 124.64699725341796 292.0577243652344 123.67199725341797 Q 291.14772436523435 122.69699725341796 290.6537243652344 121.42299725341798 Q 290.15972436523435 120.14899725341797 290.15972436523435 118.74499725341796 Q 290.15972436523435 117.31499725341797 290.6537243652344 116.04099725341797 Q 291.14772436523435 114.76699725341797 292.0577243652344 113.79199725341797 Q 292.9677243652344 112.81699725341797 294.22872436523437 112.25799725341797 Q 295.4897243652344 111.69899725341797 297.0237243652344 111.69899725341797 Q 298.53172436523437 111.69899725341797 299.77972436523436 112.25799725341797 Q 301.02772436523435 112.81699725341797 301.95072436523435 113.79199725341797 Q 302.87372436523435 114.76699725341797 303.3677243652344 116.04099725341797 Q 303.86172436523435 117.31499725341797 303.86172436523435 118.74499725341796 Q 303.86172436523435 120.14899725341797 303.3677243652344 121.42299725341798 Q 302.87372436523435 122.69699725341796 301.9637243652344 123.67199725341797 Q 301.05372436523436 124.64699725341796 299.7927243652344 125.20599725341796 Q 298.53172436523437 125.76499725341797 296.9977243652344 125.76499725341797 Z M 292.4997243652344 118.77099725341797 Q 292.4997243652344 120.17499725341797 293.1107243652344 121.31899725341796 Q 293.72172436523437 122.46299725341797 294.7357243652344 123.12599725341796 Q 295.7497243652344 123.78899725341797 296.9977243652344 123.78899725341797 Q 298.24572436523437 123.78899725341797 299.27272436523435 123.11299725341797 Q 300.2997243652344 122.43699725341797 300.9107243652344 121.27999725341797 Q 301.5217243652344 120.12299725341796 301.5217243652344 118.71899725341797 Q 301.5217243652344 117.31499725341797 300.9107243652344 116.17099725341797 Q 300.2997243652344 115.02699725341796 299.27272436523435 114.35099725341797 Q 298.24572436523437 113.67499725341797 296.9977243652344 113.67499725341797 Q 295.7497243652344 113.67499725341797 294.7357243652344 114.36399725341796 Q 293.72172436523437 115.05299725341797 293.1107243652344 116.19699725341796 Q 292.4997243652344 117.34099725341797 292.4997243652344 118.77099725341797 Z M 313.954490234375 125.76499725341797 Q 312.290490234375 125.76499725341797 310.990490234375 124.93299725341797 Q 309.690490234375 124.10099725341797 308.936490234375 122.82699725341797 L 308.936490234375 131.04299725341798 L 306.648490234375 131.04299725341798 L 306.648490234375 111.93299725341797 L 308.676490234375 111.93299725341797 L 308.676490234375 114.48099725341797 Q 309.482490234375 113.23299725341796 310.782490234375 112.46599725341797 Q 312.082490234375 111.69899725341797 313.616490234375 111.69899725341797 Q 315.020490234375 111.69899725341797 316.190490234375 112.27099725341796 Q 317.360490234375 112.84299725341796 318.218490234375 113.83099725341796 Q 319.076490234375 114.81899725341796 319.557490234375 116.07999725341797 Q 320.038490234375 117.34099725341797 320.038490234375 118.71899725341797 Q 320.038490234375 120.64299725341797 319.271490234375 122.25499725341797 Q 318.504490234375 123.86699725341796 317.126490234375 124.81599725341798 Q 315.748490234375 125.76499725341797 313.954490234375 125.76499725341797 Z M 313.252490234375 123.78899725341797 Q 314.266490234375 123.78899725341797 315.085490234375 123.35999725341797 Q 315.904490234375 122.93099725341797 316.489490234375 122.21599725341797 Q 317.074490234375 121.50099725341796 317.386490234375 120.59099725341797 Q 317.698490234375 119.68099725341797 317.698490234375 118.71899725341797 Q 317.698490234375 117.70499725341797 317.347490234375 116.79499725341796 Q 316.996490234375 115.88499725341796 316.359490234375 115.18299725341797 Q 315.722490234375 114.48099725341797 314.877490234375 114.07799725341796 Q 314.032490234375 113.67499725341797 313.044490234375 113.67499725341797 Q 312.420490234375 113.67499725341797 311.757490234375 113.90899725341797 Q 311.094490234375 114.14299725341797 310.496490234375 114.57199725341796 Q 309.898490234375 115.00099725341796 309.482490234375 115.54699725341797 Q 309.066490234375 116.09299725341796 308.936490234375 116.71699725341797 L 308.936490234375 120.59099725341797 Q 309.326490234375 121.47499725341797 309.976490234375 122.20299725341796 Q 310.626490234375 122.93099725341797 311.484490234375 123.35999725341797 Q 312.342490234375 123.78899725341797 313.252490234375 123.78899725341797 Z M 329.779091796875 125.50499725341797 L 329.779091796875 107.04499725341796 L 337.683091796875 107.04499725341796 Q 338.905091796875 107.04499725341796 339.919091796875 107.55199725341797 Q 340.933091796875 108.05899725341797 341.687091796875 108.90399725341797 Q 342.441091796875 109.74899725341797 342.857091796875 110.80199725341797 Q 343.273091796875 111.85499725341796 343.273091796875 112.94699725341796 Q 343.273091796875 114.22099725341796 342.792091796875 115.36499725341797 Q 342.311091796875 116.50899725341797 341.440091796875 117.31499725341797 Q 340.569091796875 118.12099725341797 339.399091796875 118.43299725341797 L 343.871091796875 125.50499725341797 L 341.219091796875 125.50499725341797 L 337.007091796875 118.87499725341797 L 332.119091796875 118.87499725341797 L 332.119091796875 125.50499725341797 Z M 332.119091796875 116.79499725341796 L 337.709091796875 116.79499725341796 Q 338.671091796875 116.79499725341796 339.386091796875 116.26199725341797 Q 340.101091796875 115.72899725341797 340.504091796875 114.84499725341797 Q 340.907091796875 113.96099725341797 340.907091796875 112.94699725341796 Q 340.907091796875 111.90699725341797 340.439091796875 111.03599725341797 Q 339.971091796875 110.16499725341797 339.217091796875 109.64499725341797 Q 338.463091796875 109.12499725341797 337.553091796875 109.12499725341797 L 332.119091796875 109.12499725341797 Z M 352.04679370117185 125.76499725341797 Q 350.51279370117186 125.76499725341797 349.2517937011719 125.20599725341796 Q 347.99079370117187 124.64699725341796 347.06779370117187 123.67199725341797 Q 346.14479370117186 122.69699725341796 345.63779370117186 121.42299725341798 Q 345.13079370117185 120.14899725341797 345.13079370117185 118.71899725341797 Q 345.13079370117185 116.79499725341796 346.01479370117187 115.20899725341796 Q 346.8987937011719 113.62299725341796 348.47179370117186 112.66099725341797 Q 350.0447937011719 111.69899725341797 352.07279370117186 111.69899725341797 Q 354.1267937011719 111.69899725341797 355.64779370117185 112.67399725341797 Q 357.16879370117186 113.64899725341797 358.0137937011719 115.22199725341797 Q 358.85879370117186 116.79499725341796 358.85879370117186 118.61499725341797 Q 358.85879370117186 118.87499725341797 358.8457937011719 119.12199725341797 Q 358.83279370117185 119.36899725341797 358.8067937011719 119.49899725341797 L 347.54879370117186 119.49899725341797 Q 347.6527937011719 120.82499725341796 348.2897937011719 121.85199725341796 Q 348.9267937011719 122.87899725341796 349.94079370117186 123.46399725341797 Q 350.95479370117187 124.04899725341797 352.1247937011719 124.04899725341797 Q 353.3727937011719 124.04899725341797 354.4777937011719 123.42499725341797 Q 355.58279370117185 122.80099725341798 355.99879370117185 121.78699725341797 L 357.97479370117185 122.33299725341797 Q 357.5327937011719 123.32099725341797 356.66179370117186 124.10099725341797 Q 355.7907937011719 124.88099725341797 354.6077937011719 125.32299725341797 Q 353.4247937011719 125.76499725341797 352.04679370117185 125.76499725341797 Z M 347.4707937011719 117.91299725341797 L 356.72679370117186 117.91299725341797 Q 356.6227937011719 116.58699725341796 355.9727937011719 115.57299725341797 Q 355.32279370117186 114.55899725341797 354.30879370117185 113.98699725341797 Q 353.2947937011719 113.41499725341797 352.07279370117186 113.41499725341797 Q 350.8767937011719 113.41499725341797 349.8627937011719 113.98699725341797 Q 348.84879370117187 114.55899725341797 348.21179370117187 115.57299725341797 Q 347.57479370117187 116.58699725341796 347.4707937011719 117.91299725341797 Z M 360.3348095703125 121.57899725341797 Q 360.3348095703125 120.27899725341797 361.0758095703125 119.32999725341797 Q 361.8168095703125 118.38099725341797 363.1168095703125 117.86099725341796 Q 364.4168095703125 117.34099725341797 366.1328095703125 117.34099725341797 Q 367.0428095703125 117.34099725341797 368.0568095703125 117.48399725341797 Q 369.0708095703125 117.62699725341797 369.8508095703125 117.91299725341797 L 369.8508095703125 116.92499725341797 Q 369.8508095703125 115.36499725341797 368.9148095703125 114.46799725341796 Q 367.9788095703125 113.57099725341797 366.2628095703125 113.57099725341797 Q 365.1448095703125 113.57099725341797 364.1178095703125 113.97399725341796 Q 363.0908095703125 114.37699725341797 361.9468095703125 115.13099725341797 L 361.1148095703125 113.51899725341796 Q 362.4408095703125 112.60899725341797 363.7668095703125 112.15399725341797 Q 365.0928095703125 111.69899725341797 366.5228095703125 111.69899725341797 Q 369.1228095703125 111.69899725341797 370.6308095703125 113.14199725341797 Q 372.1388095703125 114.58499725341797 372.1388095703125 117.15899725341797 L 372.1388095703125 122.90499725341797 Q 372.1388095703125 123.32099725341797 372.3078095703125 123.51599725341796 Q 372.4768095703125 123.71099725341797 372.8668095703125 123.73699725341797 L 372.8668095703125 125.50499725341797 Q 372.5288095703125 125.55699725341798 372.2818095703125 125.58299725341797 Q 372.0348095703125 125.60899725341797 371.8788095703125 125.60899725341797 Q 371.07280957031253 125.60899725341797 370.6698095703125 125.16699725341797 Q 370.2668095703125 124.72499725341797 370.2148095703125 124.23099725341797 L 370.1628095703125 123.37299725341796 Q 369.2788095703125 124.51699725341797 367.8488095703125 125.14099725341796 Q 366.4188095703125 125.76499725341797 365.0148095703125 125.76499725341797 Q 363.6628095703125 125.76499725341797 362.5968095703125 125.20599725341796 Q 361.5308095703125 124.64699725341796 360.9328095703125 123.69799725341797 Q 360.3348095703125 122.74899725341797 360.3348095703125 121.57899725341797 Z M 369.1748095703125 122.54099725341797 Q 369.4868095703125 122.17699725341797 369.6688095703125 121.79999725341797 Q 369.8508095703125 121.42299725341798 369.8508095703125 121.16299725341797 L 369.8508095703125 119.47299725341797 Q 369.0448095703125 119.16099725341797 368.1608095703125 118.99199725341796 Q 367.2768095703125 118.82299725341797 366.4188095703125 118.82299725341797 Q 364.6768095703125 118.82299725341797 363.5978095703125 119.51199725341797 Q 362.5188095703125 120.20099725341797 362.5188095703125 121.39699725341796 Q 362.5188095703125 122.04699725341797 362.8698095703125 122.65799725341797 Q 363.2208095703125 123.26899725341796 363.9098095703125 123.65899725341797 Q 364.5988095703125 124.04899725341797 365.6128095703125 124.04899725341797 Q 366.6788095703125 124.04899725341797 367.6408095703125 123.61999725341796 Q 368.6028095703125 123.19099725341798 369.1748095703125 122.54099725341797 Z M 381.813669921875 125.76499725341797 Q 380.279669921875 125.76499725341797 379.018669921875 125.20599725341796 Q 377.757669921875 124.64699725341796 376.834669921875 123.65899725341797 Q 375.911669921875 122.67099725341797 375.404669921875 121.39699725341796 Q 374.897669921875 120.12299725341796 374.897669921875 118.69299725341797 Q 374.897669921875 116.76899725341796 375.755669921875 115.18299725341797 Q 376.613669921875 113.59699725341797 378.173669921875 112.64799725341797 Q 379.733669921875 111.69899725341797 381.787669921875 111.69899725341797 Q 383.789669921875 111.69899725341797 385.284669921875 112.59599725341796 Q 386.779669921875 113.49299725341797 387.507669921875 115.00099725341796 L 385.271669921875 115.70299725341796 Q 384.751669921875 114.74099725341797 383.815669921875 114.20799725341797 Q 382.879669921875 113.67499725341797 381.735669921875 113.67499725341797 Q 380.487669921875 113.67499725341797 379.460669921875 114.32499725341796 Q 378.433669921875 114.97499725341797 377.835669921875 116.10599725341797 Q 377.237669921875 117.23699725341797 377.237669921875 118.69299725341797 Q 377.237669921875 120.12299725341796 377.848669921875 121.27999725341797 Q 378.459669921875 122.43699725341797 379.486669921875 123.11299725341797 Q 380.513669921875 123.78899725341797 381.761669921875 123.78899725341797 Q 382.567669921875 123.78899725341797 383.308669921875 123.50299725341797 Q 384.049669921875 123.21699725341797 384.608669921875 122.73599725341796 Q 385.167669921875 122.25499725341797 385.375669921875 121.68299725341797 L 387.611669921875 122.35899725341797 Q 387.195669921875 123.34699725341797 386.350669921875 124.11399725341796 Q 385.505669921875 124.88099725341797 384.348669921875 125.32299725341797 Q 383.191669921875 125.76499725341797 381.813669921875 125.76499725341797 Z M 397.21887475585936 124.82899725341797 Q 396.93287475585936 124.95899725341796 396.4388747558594 125.16699725341797 Q 395.94487475585936 125.37499725341797 395.2948747558594 125.53099725341796 Q 394.64487475585935 125.68699725341797 393.9168747558594 125.68699725341797 Q 393.0848747558594 125.68699725341797 392.38287475585935 125.38799725341796 Q 391.68087475585935 125.08899725341797 391.26487475585935 124.45199725341797 Q 390.84887475585936 123.81499725341797 390.84887475585936 122.85299725341797 L 390.84887475585936 113.72699725341796 L 389.00287475585935 113.72699725341796 L 389.00287475585935 111.93299725341797 L 390.84887475585936 111.93299725341797 L 390.84887475585936 107.40899725341797 L 393.13687475585937 107.40899725341797 L 393.13687475585937 111.93299725341797 L 396.1788747558594 111.93299725341797 L 396.1788747558594 113.72699725341796 L 393.13687475585937 113.72699725341796 L 393.13687475585937 122.15099725341797 Q 393.1888747558594 122.87899725341796 393.6308747558594 123.22999725341796 Q 394.0728747558594 123.58099725341796 394.67087475585936 123.58099725341796 Q 395.3468747558594 123.58099725341796 395.91887475585935 123.34699725341797 Q 396.49087475585935 123.11299725341797 396.67287475585937 123.00899725341797 Z M 406.2979211425781 125.50499725341797 L 406.2979211425781 107.04499725341796 L 414.2019211425781 107.04499725341796 Q 415.42392114257814 107.04499725341796 416.43792114257815 107.55199725341797 Q 417.4519211425781 108.05899725341797 418.2059211425781 108.90399725341797 Q 418.95992114257814 109.74899725341797 419.37592114257814 110.80199725341797 Q 419.79192114257813 111.85499725341796 419.79192114257813 112.94699725341796 Q 419.79192114257813 114.22099725341796 419.31092114257814 115.36499725341797 Q 418.82992114257814 116.50899725341797 417.9589211425781 117.31499725341797 Q 417.0879211425781 118.12099725341797 415.9179211425781 118.43299725341797 L 420.38992114257815 125.50499725341797 L 417.7379211425781 125.50499725341797 L 413.5259211425781 118.87499725341797 L 408.63792114257814 118.87499725341797 L 408.63792114257814 125.50499725341797 Z M 408.63792114257814 116.79499725341796 L 414.2279211425781 116.79499725341796 Q 415.1899211425781 116.79499725341796 415.90492114257813 116.26199725341797 Q 416.6199211425781 115.72899725341797 417.0229211425781 114.84499725341797 Q 417.42592114257815 113.96099725341797 417.42592114257815 112.94699725341796 Q 417.42592114257815 111.90699725341797 416.95792114257813 111.03599725341797 Q 416.4899211425781 110.16499725341797 415.73592114257815 109.64499725341797 Q 414.98192114257813 109.12499725341797 414.0719211425781 109.12499725341797 L 408.63792114257814 109.12499725341797 Z M 428.565623046875 125.76499725341797 Q 427.031623046875 125.76499725341797 425.770623046875 125.20599725341796 Q 424.509623046875 124.64699725341796 423.586623046875 123.67199725341797 Q 422.663623046875 122.69699725341796 422.156623046875 121.42299725341798 Q 421.649623046875 120.14899725341797 421.649623046875 118.71899725341797 Q 421.649623046875 116.79499725341796 422.533623046875 115.20899725341796 Q 423.417623046875 113.62299725341796 424.990623046875 112.66099725341797 Q 426.563623046875 111.69899725341797 428.591623046875 111.69899725341797 Q 430.645623046875 111.69899725341797 432.166623046875 112.67399725341797 Q 433.687623046875 113.64899725341797 434.532623046875 115.22199725341797 Q 435.377623046875 116.79499725341796 435.377623046875 118.61499725341797 Q 435.377623046875 118.87499725341797 435.364623046875 119.12199725341797 Q 435.351623046875 119.36899725341797 435.325623046875 119.49899725341797 L 424.067623046875 119.49899725341797 Q 424.171623046875 120.82499725341796 424.808623046875 121.85199725341796 Q 425.445623046875 122.87899725341796 426.459623046875 123.46399725341797 Q 427.473623046875 124.04899725341797 428.643623046875 124.04899725341797 Q 429.891623046875 124.04899725341797 430.996623046875 123.42499725341797 Q 432.101623046875 122.80099725341798 432.517623046875 121.78699725341797 L 434.493623046875 122.33299725341797 Q 434.051623046875 123.32099725341797 433.180623046875 124.10099725341797 Q 432.309623046875 124.88099725341797 431.126623046875 125.32299725341797 Q 429.943623046875 125.76499725341797 428.565623046875 125.76499725341797 Z M 423.989623046875 117.91299725341797 L 433.245623046875 117.91299725341797 Q 433.141623046875 116.58699725341796 432.491623046875 115.57299725341797 Q 431.841623046875 114.55899725341797 430.827623046875 113.98699725341797 Q 429.813623046875 113.41499725341797 428.591623046875 113.41499725341797 Q 427.395623046875 113.41499725341797 426.381623046875 113.98699725341797 Q 425.367623046875 114.55899725341797 424.730623046875 115.57299725341797 Q 424.093623046875 116.58699725341796 423.989623046875 117.91299725341797 Z M 444.88763891601565 125.76499725341797 Q 443.30163891601563 125.76499725341797 442.0016389160156 124.98499725341797 Q 440.7016389160156 124.20499725341797 439.94763891601565 122.95699725341797 L 439.94763891601565 125.50499725341797 L 437.91963891601563 125.50499725341797 L 437.91963891601563 106.52499725341796 L 440.20763891601564 106.52499725341796 L 440.20763891601564 114.63699725341797 Q 441.06563891601564 113.31099725341797 442.31363891601563 112.50499725341797 Q 443.5616389160156 111.69899725341797 445.2256389160156 111.69899725341797 Q 446.6296389160156 111.69899725341797 447.7476389160156 112.28399725341797 Q 448.86563891601566 112.86899725341797 449.6586389160156 113.86999725341796 Q 450.4516389160156 114.87099725341797 450.88063891601564 116.13199725341796 Q 451.3096389160156 117.39299725341797 451.3096389160156 118.77099725341797 Q 451.3096389160156 120.20099725341797 450.8286389160156 121.46199725341796 Q 450.3476389160156 122.72299725341797 449.4636389160156 123.69799725341797 Q 448.5796389160156 124.67299725341798 447.4226389160156 125.21899725341797 Q 446.26563891601563 125.76499725341797 444.88763891601565 125.76499725341797 Z M 444.31563891601564 123.78899725341797 Q 445.3296389160156 123.78899725341797 446.1876389160156 123.37299725341796 Q 447.0456389160156 122.95699725341797 447.66963891601563 122.25499725341797 Q 448.29363891601565 121.55299725341797 448.6316389160156 120.64299725341797 Q 448.96963891601564 119.73299725341796 448.96963891601564 118.77099725341797 Q 448.96963891601564 117.44499725341797 448.4106389160156 116.27499725341796 Q 447.85163891601565 115.10499725341796 446.8506389160156 114.38999725341797 Q 445.84963891601564 113.67499725341797 444.5236389160156 113.67499725341797 Q 443.5616389160156 113.67499725341797 442.72963891601563 114.11699725341796 Q 441.89763891601564 114.55899725341797 441.26063891601564 115.27399725341797 Q 440.62363891601564 115.98899725341796 440.20763891601564 116.84699725341797 L 440.20763891601564 120.77299725341797 Q 440.33763891601564 121.42299725341798 440.75363891601563 121.96899725341797 Q 441.16963891601563 122.51499725341797 441.76763891601564 122.91799725341797 Q 442.3656389160156 123.32099725341797 443.0286389160156 123.55499725341797 Q 443.6916389160156 123.78899725341797 444.31563891601564 123.78899725341797 Z M 453.9934658203125 120.07099725341797 L 453.9934658203125 111.93299725341797 L 456.2814658203125 111.93299725341797 L 456.2814658203125 119.62899725341796 Q 456.2814658203125 121.70899725341796 457.0094658203125 122.74899725341797 Q 457.7374658203125 123.78899725341797 459.1674658203125 123.78899725341797 Q 460.1034658203125 123.78899725341797 460.9744658203125 123.38599725341797 Q 461.8454658203125 122.98299725341796 462.5474658203125 122.22899725341797 Q 463.2494658203125 121.47499725341797 463.6394658203125 120.43499725341798 L 463.6394658203125 111.93299725341797 L 465.9274658203125 111.93299725341797 L 465.9274658203125 122.90499725341797 Q 465.9274658203125 123.32099725341797 466.0964658203125 123.51599725341796 Q 466.2654658203125 123.71099725341797 466.6554658203125 123.73699725341797 L 466.6554658203125 125.50499725341797 Q 466.2654658203125 125.55699725341798 466.0444658203125 125.56999725341797 Q 465.8234658203125 125.58299725341797 465.6154658203125 125.58299725341797 Q 464.9654658203125 125.58299725341797 464.4974658203125 125.17999725341797 Q 464.0294658203125 124.77699725341797 464.0034658203125 124.17899725341798 L 463.9514658203125 122.59299725341796 Q 463.0674658203125 124.10099725341797 461.5724658203125 124.93299725341797 Q 460.0774658203125 125.76499725341797 458.3094658203125 125.76499725341797 Q 456.1774658203125 125.76499725341797 455.0854658203125 124.32199725341796 Q 453.9934658203125 122.87899725341796 453.9934658203125 120.07099725341797 Z M 469.73348168945313 125.50499725341797 L 469.73348168945313 111.93299725341797 L 472.02148168945314 111.93299725341797 L 472.02148168945314 125.50499725341797 Z M 469.73348168945313 109.38499725341796 L 469.73348168945313 106.52499725341796 L 472.02148168945314 106.52499725341796 L 472.02148168945314 109.38499725341796 Z M 475.77010083007815 106.52499725341796 L 478.0581008300781 106.52499725341796 L 478.0581008300781 121.99499725341796 Q 478.0581008300781 123.11299725341797 478.3701008300781 123.37299725341796 Q 478.6821008300781 123.63299725341797 479.12410083007813 123.63299725341797 Q 479.6701008300781 123.63299725341797 480.1641008300781 123.51599725341796 Q 480.6581008300781 123.39899725341797 480.99610083007815 123.26899725341796 L 481.3601008300781 125.14099725341796 Q 480.7881008300781 125.37499725341797 480.00810083007815 125.53099725341796 Q 479.2281008300781 125.68699725341797 478.6301008300781 125.68699725341797 Q 477.30410083007814 125.68699725341797 476.53710083007815 124.93299725341797 Q 475.77010083007815 124.17899725341798 475.77010083007815 122.82699725341797 Z M 482.2719365234375 118.74499725341796 Q 482.2719365234375 116.82099725341797 483.0649365234375 115.22199725341797 Q 483.8579365234375 113.62299725341796 485.2489365234375 112.66099725341797 Q 486.6399365234375 111.69899725341797 488.4339365234375 111.69899725341797 Q 490.0719365234375 111.69899725341797 491.3719365234375 112.55699725341796 Q 492.6719365234375 113.41499725341797 493.3999365234375 114.63699725341797 L 493.3999365234375 106.52499725341796 L 495.6879365234375 106.52499725341796 L 495.6879365234375 122.90499725341797 Q 495.6879365234375 123.32099725341797 495.8569365234375 123.51599725341796 Q 496.0259365234375 123.71099725341797 496.4159365234375 123.73699725341797 L 496.4159365234375 125.50499725341797 Q 495.7659365234375 125.60899725341797 495.4019365234375 125.60899725341797 Q 494.7259365234375 125.60899725341797 494.2189365234375 125.14099725341796 Q 493.7119365234375 124.67299725341798 493.7119365234375 124.10099725341797 L 493.7119365234375 122.95699725341797 Q 492.9059365234375 124.25699725341796 491.5539365234375 125.01099725341797 Q 490.2019365234375 125.76499725341797 488.7459365234375 125.76499725341797 Q 487.3419365234375 125.76499725341797 486.1589365234375 125.20599725341796 Q 484.9759365234375 124.64699725341796 484.1049365234375 123.65899725341797 Q 483.2339365234375 122.67099725341797 482.7529365234375 121.40999725341797 Q 482.2719365234375 120.14899725341797 482.2719365234375 118.74499725341796 Z M 493.3999365234375 120.74699725341797 L 493.3999365234375 116.84699725341797 Q 493.0879365234375 115.96299725341797 492.3859365234375 115.24799725341796 Q 491.6839365234375 114.53299725341796 490.8129365234375 114.10399725341797 Q 489.9419365234375 113.67499725341797 489.0839365234375 113.67499725341797 Q 488.0699365234375 113.67499725341797 487.2509365234375 114.10399725341797 Q 486.4319365234375 114.53299725341796 485.8469365234375 115.24799725341796 Q 485.2619365234375 115.96299725341797 484.9499365234375 116.87299725341796 Q 484.6379365234375 117.78299725341797 484.6379365234375 118.77099725341797 Q 484.6379365234375 119.78499725341797 484.9889365234375 120.69499725341797 Q 485.3399365234375 121.60499725341796 485.9769365234375 122.30699725341796 Q 486.6139365234375 123.00899725341797 487.4589365234375 123.39899725341797 Q 488.3039365234375 123.78899725341797 489.2919365234375 123.78899725341797 Q 489.9159365234375 123.78899725341797 490.5789365234375 123.55499725341797 Q 491.2419365234375 123.32099725341797 491.8399365234375 122.90499725341797 Q 492.4379365234375 122.48899725341796 492.8539365234375 121.92999725341797 Q 493.2699365234375 121.37099725341797 493.3999365234375 120.74699725341797 Z" transform="matrix(1, 0, 0, 1, 0, 0)" style="fill: rgb(51, 51, 51); white-space: pre;"/>
  <path class="st0" d="M 71.634 135.097 C 76.372 136.538 81.405 137.312 86.787 137.312 C 109.604 137.312 125.519 122.74 125.519 95.089 L 125.519 12.603 L 134.177 8.947 L 134.177 96.531 C 134.177 124.747 117.619 141.172 94.218 141.172 C 86.085 141.172 78.422 138.959 71.634 135.097 M 61.746 126.756 C 67.012 128.3 72.278 129.279 76.899 129.279 C 96.09 129.279 108.844 118.671 108.844 94.779 L 108.844 18.884 L 117.386 15.333 L 117.386 95.399 C 117.386 120.422 102.994 133.243 82.927 133.243 C 75.553 133.243 68.007 130.823 61.746 126.756 M 55.721 119.238 C 60.342 120.474 64.613 121.245 68.357 121.245 C 83.276 121.245 92.403 114.089 92.403 95.243 L 92.403 25.269 L 100.828 21.716 L 100.828 94.06 C 100.828 115.221 89.829 124.851 74.032 124.851 C 67.362 124.851 61.102 122.893 55.721 119.238 M 84.564 97.149 L 84.564 28.153 L 47.588 42.827 L 47.588 98.849 C 47.588 109.558 55.252 116.715 66.485 116.715 C 77.661 116.715 84.564 109.403 84.564 97.149" style="fill: rgb(0, 38, 119);"/>
  <path class="st0" d="M 168.813 23.261 L 168.813 41.952 C 168.813 48.852 173.435 54.258 182.327 54.258 C 189.933 54.258 195.667 49.315 195.667 41.798 L 195.667 23.775 C 195.667 21.819 197.13 20.223 199.646 20.069 L 200.465 20.016 L 200.465 18.215 L 187.125 18.215 L 187.125 19.966 L 188.002 20.016 C 190.46 20.173 191.981 21.716 191.981 23.724 L 191.981 41.18 C 191.981 46.896 188.588 50.344 183.323 50.344 C 177.998 50.344 174.839 46.689 174.839 41.127 L 174.839 23.261 C 174.839 21.305 176.068 20.173 178.583 20.016 L 179.402 19.966 L 179.402 18.215 L 164.249 18.215 L 164.249 19.966 L 165.127 20.016 C 167.526 20.223 168.813 21.254 168.813 23.261" style="fill: rgb(0, 38, 119);"/>
  <path class="st0" d="M 186.833 63.115 L 187.71 63.165 C 189.816 63.268 191.454 64.041 191.454 66.153 L 191.454 77.12 L 176.477 77.12 L 176.477 66.153 C 176.477 64.041 178.056 63.319 180.221 63.165 L 181.041 63.115 L 181.041 61.364 L 165.77 61.364 L 165.77 63.115 L 166.648 63.165 C 168.755 63.268 170.392 64.041 170.392 66.153 L 170.392 91.846 C 170.392 93.957 168.813 94.728 166.648 94.832 L 165.77 94.883 L 165.77 96.635 L 180.924 96.635 L 180.924 94.883 L 180.106 94.832 C 177.998 94.677 176.361 93.957 176.361 91.846 L 176.361 79.848 L 191.338 79.848 L 191.338 91.846 C 191.338 93.957 189.758 94.728 187.594 94.832 L 186.715 94.883 L 186.715 96.635 L 201.869 96.635 L 201.869 94.883 L 201.049 94.832 C 198.943 94.677 197.305 93.957 197.305 91.846 L 197.305 66.153 C 197.305 64.041 198.884 63.319 201.049 63.165 L 201.869 63.115 L 201.869 61.364 L 186.833 61.364 L 186.833 63.115 Z" style="fill: rgb(0, 38, 119);"/>
  <path class="st0" d="M 200.407 28.564 L 200.407 30.212 L 201.576 30.263 C 203.332 30.366 204.443 31.139 204.443 33.251 L 204.443 48.748 C 204.443 50.859 203.214 51.632 201.283 51.735 L 200.407 51.787 L 200.407 53.485 L 213.979 53.485 L 213.979 51.787 L 213.161 51.735 C 211.229 51.632 210.001 50.859 210.001 48.748 L 210.001 40.509 C 210.118 34.486 213.102 30.83 216.553 30.83 C 219.245 30.83 221 32.426 221 35.568 L 221 48.748 C 221 50.859 219.771 51.632 217.841 51.735 L 216.963 51.787 L 216.963 53.485 L 230.537 53.485 L 230.537 51.787 L 229.718 51.735 C 227.786 51.632 226.558 50.859 226.558 48.748 L 226.558 35 C 226.558 31.088 223.808 27.792 218.368 27.792 C 214.506 27.792 211.229 29.8 209.884 33.404 L 209.884 27.896 L 200.407 28.564 Z" style="fill: rgb(0, 38, 119);"/>
  <path class="st0" d="M 278.687 54 C 284.479 54 287.756 50.551 289.042 46.585 L 286.586 45.968 C 285.416 48.696 283.426 50.808 279.448 50.808 C 274.826 50.808 271.666 46.945 271.666 40.768 L 289.453 40.768 L 289.453 39.326 C 289.453 32.838 285.123 27.586 278.103 27.586 C 270.613 27.586 265.64 33.869 265.64 40.768 C 265.64 47.719 270.439 54 278.687 54 M 278.044 30.47 C 281.204 30.47 283.192 33.043 283.426 38.347 L 271.726 38.347 C 272.369 33.456 274.65 30.47 278.044 30.47" style="fill: rgb(0, 38, 119);"/>
  <path class="st0" d="M 250.546 47.873 C 250.546 51.787 253.237 54 257.508 54 C 261.486 54 264.12 51.425 265.347 47.771 L 263.3 47.256 C 262.482 49.367 261.194 50.705 259.322 50.705 C 256.923 50.705 256.104 49.16 256.104 47.307 L 256.104 30.985 L 263.943 30.985 L 263.943 28.359 L 256.104 28.359 L 256.104 20.583 L 253.237 20.583 C 252.125 26.402 248.79 28.564 245.223 29.182 L 245.223 30.933 L 250.488 30.933 L 250.488 47.873 L 250.546 47.873 Z" style="fill: rgb(0, 38, 119);"/>
  <path class="st0" d="M 238.493 23.828 C 240.425 23.828 242.18 22.386 242.18 20.43 C 242.18 18.628 240.484 17.133 238.493 17.133 C 236.504 17.133 234.808 18.577 234.808 20.43 C 234.866 22.386 236.504 23.828 238.493 23.828" style="fill: rgb(0, 38, 119);"/>
  <path class="st0" d="M 235.92 33.251 L 235.92 48.748 C 235.92 50.859 234.691 51.632 232.76 51.735 L 231.882 51.787 L 231.882 53.485 L 245.456 53.485 L 245.456 51.787 L 244.636 51.735 C 242.707 51.632 241.478 50.859 241.478 48.748 L 241.478 27.896 L 231.59 28.564 L 231.59 30.212 L 232.994 30.263 C 234.808 30.316 235.92 31.139 235.92 33.251" style="fill: rgb(0, 38, 119);"/>
  <path class="st0" d="M 304.079 54 C 307.882 54 310.749 52.301 312.035 49.367 L 312.035 53.485 L 321.573 53.485 L 321.573 51.787 L 320.753 51.735 C 318.822 51.632 317.594 50.859 317.594 48.748 L 317.594 17.597 L 307.882 18.37 L 307.882 20.016 L 309.168 20.069 C 310.925 20.12 312.035 20.944 312.035 23.054 L 312.035 32.118 C 310.749 29.285 307.882 27.638 304.079 27.638 C 296.59 27.638 292.318 33.919 292.318 40.82 C 292.318 47.719 296.532 54 304.079 54 M 305.015 30.47 C 309.228 30.47 311.977 34.486 311.977 40.82 C 311.977 47.152 309.228 51.17 305.015 51.17 C 301.038 51.17 298.403 47.204 298.403 40.82 C 298.403 34.434 301.038 30.47 305.015 30.47" style="fill: rgb(0, 38, 119);"/>
  <path class="st0" d="M 389.264 70.837 C 385.93 70.837 383.062 72.744 381.834 76.192 L 381.834 71.044 L 372.239 71.713 L 372.239 73.361 L 373.409 73.411 C 375.164 73.514 376.275 74.287 376.275 76.398 L 376.275 91.898 C 376.275 94.008 375.047 94.779 373.116 94.883 L 372.239 94.935 L 372.239 96.635 L 385.753 96.635 L 385.753 94.935 L 384.935 94.883 C 383.004 94.779 381.775 94.008 381.775 91.898 L 381.775 83.453 C 381.892 77.171 384.993 73.206 388.737 73.206 C 389.615 73.206 390.141 73.411 390.61 73.875 C 389.615 74.34 389.031 75.162 389.031 76.244 C 389.031 77.685 390.376 78.922 392.073 78.922 C 393.71 78.922 395.115 77.737 395.115 75.987 C 395.174 72.795 392.482 70.837 389.264 70.837" style="fill: rgb(0, 38, 119);"/>
  <path class="st0" d="M 407.694 70.735 C 400.205 70.735 395.232 77.017 395.232 83.915 C 395.232 90.815 400.029 97.098 408.278 97.098 C 414.071 97.098 417.348 93.647 418.634 89.683 L 416.177 89.065 C 415.007 91.794 413.017 93.905 409.039 93.905 C 404.417 93.905 401.258 90.044 401.258 83.864 L 419.043 83.864 L 419.043 82.422 C 418.985 75.987 414.656 70.735 407.694 70.735 M 401.317 81.445 C 401.902 76.553 404.184 73.566 407.635 73.566 C 410.794 73.566 412.784 76.141 413.017 81.445 L 401.317 81.445 Z" style="fill: rgb(0, 38, 119);"/>
  <path class="st0" d="M 367.324 92.463 L 367.324 79.335 C 367.324 73.927 363.462 70.786 357.027 70.786 C 351.469 70.786 346.554 74.03 346.554 77.685 C 346.554 79.23 347.842 80.466 349.597 80.466 C 351.235 80.466 352.639 79.283 352.639 77.788 C 352.639 76.76 351.995 75.884 351.118 75.421 C 352.171 74.184 353.985 73.411 356.208 73.411 C 359.718 73.411 361.825 75.729 361.825 79.59 L 361.825 80.723 L 353.341 83.812 C 347.665 85.873 345.735 87.675 345.735 90.969 C 345.735 94.728 348.837 97.149 353.692 97.149 C 357.378 97.149 360.362 95.192 361.766 92.206 L 361.766 92.979 C 361.766 95.553 363.814 97.098 367.266 97.098 C 368.611 97.098 369.723 96.942 370.892 96.635 L 370.892 94.935 C 368.436 95.192 367.324 94.368 367.324 92.463 M 361.707 86.748 C 361.415 91.176 358.899 94.162 355.389 94.162 C 352.873 94.162 351.294 92.669 351.294 90.352 C 351.294 88.291 352.581 86.695 354.98 85.771 L 361.766 83.093 L 361.707 86.748 Z" style="fill: rgb(0, 38, 119);"/>
  <path class="st0" d="M 286.995 90.403 C 286.176 92.515 284.889 93.854 283.017 93.854 C 280.618 93.854 279.798 92.309 279.798 90.455 L 279.798 74.133 L 287.639 74.133 L 287.639 71.507 L 279.798 71.507 L 279.798 63.733 L 276.932 63.733 C 275.821 69.551 272.485 71.713 268.917 72.331 L 268.917 74.082 L 274.183 74.082 L 274.183 90.969 C 274.183 94.883 276.874 97.098 281.145 97.098 C 285.123 97.098 287.756 94.524 288.985 90.867 L 286.995 90.403 Z" style="fill: rgb(0, 38, 119);"/>
  <path class="st0" d="M 250.663 92.463 L 250.663 79.335 C 250.663 73.927 246.801 70.786 240.365 70.786 C 234.808 70.786 229.894 74.03 229.894 77.685 C 229.894 79.23 231.181 80.466 232.936 80.466 C 234.574 80.466 235.978 79.283 235.978 77.788 C 235.978 76.76 235.334 75.884 234.457 75.421 C 235.51 74.184 237.324 73.411 239.546 73.411 C 243.057 73.411 245.164 75.729 245.164 79.59 L 245.164 80.723 L 236.681 83.812 C 231.004 85.873 229.075 87.675 229.075 90.969 C 229.075 94.728 232.176 97.149 237.03 97.149 C 240.717 97.149 243.701 95.192 245.105 92.206 L 245.105 92.979 C 245.105 95.553 247.152 97.098 250.605 97.098 C 251.95 97.098 253.061 96.942 254.232 96.635 L 254.232 94.935 C 251.774 95.192 250.663 94.368 250.663 92.463 M 245.105 86.748 C 244.812 91.176 242.296 94.162 238.786 94.162 C 236.27 94.162 234.691 92.669 234.691 90.352 C 234.691 88.291 235.978 86.695 238.377 85.771 L 245.164 83.093 L 245.105 86.748 Z" style="fill: rgb(0, 38, 119);"/>
  <path class="st0" d="M 334.327 93.957 C 329.704 93.957 326.545 90.095 326.545 83.915 C 326.545 77.685 329.646 73.669 334.268 73.669 C 336.316 73.669 337.954 74.287 338.89 75.368 C 338.012 75.884 337.486 76.708 337.486 77.685 C 337.486 79.127 338.832 80.363 340.529 80.363 C 342.225 80.363 343.571 79.18 343.571 77.427 C 343.571 74.391 340.119 70.684 334.034 70.684 C 325.492 70.684 320.578 76.964 320.578 83.864 C 320.578 90.764 325.376 97.045 333.625 97.045 C 339.301 97.045 342.517 93.699 343.746 89.94 L 341.288 89.271 C 340.119 91.948 338.188 93.957 334.327 93.957" style="fill: rgb(0, 38, 119);"/>
  <path class="st0" d="M 265.173 91.898 L 265.173 60.694 L 255.46 61.466 L 255.46 63.115 L 256.748 63.165 C 258.503 63.217 259.614 64.041 259.614 66.153 L 259.614 91.898 C 259.614 94.008 258.385 94.779 256.455 94.883 L 255.577 94.935 L 255.577 96.635 L 269.15 96.635 L 269.15 94.935 L 268.331 94.883 C 266.401 94.779 265.173 94.008 265.173 91.898" style="fill: rgb(0, 38, 119);"/>
  <path class="st0" d="M 315.312 91.898 L 315.312 78.149 C 315.312 74.236 312.563 70.94 307.122 70.94 C 303.26 70.94 299.984 72.948 298.639 76.553 L 298.639 60.745 L 288.926 61.518 L 288.926 63.165 L 290.213 63.217 C 291.968 63.268 293.079 64.093 293.079 66.203 L 293.079 91.948 C 293.079 94.06 291.851 94.832 289.921 94.935 L 289.042 94.986 L 289.042 96.686 L 302.617 96.686 L 302.617 94.935 L 301.798 94.883 C 299.867 94.779 298.639 94.008 298.639 91.898 L 298.639 83.659 C 298.755 77.635 301.74 73.979 305.25 73.979 C 307.941 73.979 309.695 75.575 309.695 78.716 L 309.695 91.898 C 309.695 94.008 308.467 94.779 306.536 94.883 L 305.659 94.935 L 305.659 96.635 L 319.233 96.635 L 319.233 94.935 L 318.413 94.883 C 316.482 94.779 315.312 94.008 315.312 91.898" style="fill: rgb(0, 38, 119);"/>
  <path class="st0" d="M 215.559 70.735 C 208.071 70.735 203.098 77.017 203.098 83.915 C 203.098 90.815 207.895 97.098 216.145 97.098 C 221.936 97.098 225.212 93.647 226.499 89.683 L 224.042 89.065 C 222.873 91.794 220.883 93.905 216.905 93.905 C 212.283 93.905 209.124 90.044 209.124 83.864 L 226.91 83.864 L 226.91 82.422 C 226.91 75.987 222.52 70.735 215.559 70.735 M 209.183 81.445 C 209.767 76.553 212.049 73.566 215.5 73.566 C 218.66 73.566 220.649 76.141 220.883 81.445 L 209.183 81.445 Z" style="fill: rgb(0, 38, 119);"/>
  <text style="white-space: pre; fill: rgb(51, 51, 51); font-family: Arial, sans-serif; font-size: 16.3px;" x="318.976" y="116.997"> </text>
</svg>