<?xml version="1.0" encoding="utf-8"?>
<svg viewBox="47.588 8.947 371.455 132.225" xmlns="http://www.w3.org/2000/svg">
  <path d="M 171.68099353027344 125.62498962402344 Q 169.64099353027345 125.62498962402344 168.24899353027342 124.91698962402344 Q 166.85699353027343 124.20898962402343 166.01699353027342 122.99698962402344 Q 165.17699353027345 121.78498962402344 164.79299353027343 120.24898962402344 Q 164.40899353027345 118.71298962402344 164.40899353027345 117.08098962402343 L 164.40899353027345 108.46498962402345 L 166.56899353027345 108.46498962402345 L 166.56899353027345 117.08098962402343 Q 166.56899353027345 118.32898962402344 166.82099353027343 119.51698962402344 Q 167.07299353027344 120.70498962402344 167.64899353027343 121.64098962402343 Q 168.22499353027345 122.57698962402344 169.20899353027343 123.12898962402343 Q 170.19299353027344 123.68098962402344 171.65699353027344 123.68098962402344 Q 173.14499353027344 123.68098962402344 174.12899353027345 123.11698962402343 Q 175.11299353027343 122.55298962402344 175.68899353027345 121.60498962402343 Q 176.26499353027344 120.65698962402344 176.51699353027342 119.48098962402344 Q 176.76899353027343 118.30498962402343 176.76899353027343 117.08098962402343 L 176.76899353027343 108.46498962402345 L 178.92899353027343 108.46498962402345 L 178.92899353027343 117.08098962402343 Q 178.92899353027343 118.80898962402344 178.53299353027344 120.35698962402344 Q 178.13699353027343 121.90498962402344 177.27299353027342 123.08098962402343 Q 176.40899353027345 124.25698962402343 175.02899353027342 124.94098962402344 Q 173.64899353027343 125.62498962402344 171.68099353027344 125.62498962402344 Z M 196.46322302246094 108.46498962402345 L 196.46322302246094 125.50498962402344 L 194.30322302246094 125.50498962402344 L 194.30322302246094 117.75298962402344 L 184.91922302246093 117.75298962402344 L 184.91922302246093 125.50498962402344 L 182.75922302246093 125.50498962402344 L 182.75922302246093 108.46498962402345 L 184.91922302246093 108.46498962402345 L 184.91922302246093 115.83298962402344 L 194.30322302246094 115.83298962402344 L 194.30322302246094 108.46498962402345 Z M 207.43770251464844 125.62498962402344 Q 205.63770251464842 125.62498962402344 204.17370251464843 124.90498962402344 Q 202.70970251464843 124.18498962402344 201.64170251464844 122.94898962402344 Q 200.57370251464843 121.71298962402344 199.99770251464844 120.16498962402343 Q 199.42170251464844 118.61698962402343 199.42170251464844 116.98498962402344 Q 199.42170251464844 115.28098962402343 200.03370251464844 113.73298962402343 Q 200.64570251464843 112.18498962402344 201.73770251464845 110.97298962402344 Q 202.82970251464843 109.76098962402344 204.29370251464843 109.05298962402344 Q 205.75770251464843 108.34498962402344 207.48570251464844 108.34498962402344 Q 209.28570251464845 108.34498962402344 210.74970251464845 109.08898962402344 Q 212.21370251464845 109.83298962402344 213.26970251464843 111.08098962402343 Q 214.32570251464844 112.32898962402344 214.90170251464843 113.86498962402344 Q 215.47770251464843 115.40098962402344 215.47770251464843 117.00898962402344 Q 215.47770251464843 118.71298962402344 214.87770251464843 120.26098962402344 Q 214.27770251464844 121.80898962402344 213.18570251464843 123.02098962402344 Q 212.09370251464844 124.23298962402343 210.62970251464844 124.92898962402344 Q 209.16570251464844 125.62498962402344 207.43770251464844 125.62498962402344 Z M 201.60570251464844 116.98498962402344 Q 201.60570251464844 118.28098962402343 202.02570251464843 119.49298962402344 Q 202.44570251464845 120.70498962402344 203.21370251464845 121.64098962402343 Q 203.98170251464845 122.57698962402344 205.06170251464843 123.12898962402343 Q 206.14170251464844 123.68098962402344 207.46170251464844 123.68098962402344 Q 208.82970251464843 123.68098962402344 209.90970251464844 123.10498962402343 Q 210.98970251464843 122.52898962402344 211.74570251464843 121.56898962402343 Q 212.50170251464843 120.60898962402344 212.89770251464844 119.40898962402343 Q 213.29370251464843 118.20898962402343 213.29370251464843 116.98498962402344 Q 213.29370251464843 115.68898962402343 212.87370251464844 114.48898962402343 Q 212.45370251464843 113.28898962402343 211.67370251464843 112.34098962402344 Q 210.89370251464842 111.39298962402344 209.82570251464844 110.85298962402344 Q 208.75770251464843 110.31298962402343 207.46170251464844 110.31298962402343 Q 206.09370251464844 110.31298962402343 205.01370251464843 110.87698962402344 Q 203.93370251464845 111.44098962402344 203.17770251464844 112.40098962402344 Q 202.42170251464844 113.36098962402343 202.01370251464843 114.54898962402343 Q 201.60570251464844 115.73698962402344 201.60570251464844 116.98498962402344 Z M 228.89066674804687 125.50498962402344 L 226.77866674804687 125.50498962402344 L 226.77866674804687 118.49698962402344 Q 226.77866674804687 116.50498962402344 226.16666674804688 115.58098962402343 Q 225.55466674804688 114.65698962402344 224.30666674804687 114.65698962402344 Q 223.44266674804686 114.65698962402344 222.59066674804689 115.08898962402344 Q 221.73866674804688 115.52098962402344 221.07866674804689 116.25298962402344 Q 220.4186667480469 116.98498962402344 220.13066674804688 117.94498962402344 L 220.13066674804688 125.50498962402344 L 218.01866674804688 125.50498962402344 L 218.01866674804688 112.97698962402343 L 219.93866674804687 112.97698962402343 L 219.93866674804687 115.66498962402343 Q 220.44266674804686 114.77698962402344 221.23466674804686 114.12898962402343 Q 222.02666674804686 113.48098962402344 223.03466674804687 113.12098962402344 Q 224.04266674804688 112.76098962402344 225.14666674804687 112.76098962402344 Q 226.22666674804688 112.76098962402344 226.95866674804688 113.15698962402344 Q 227.69066674804688 113.55298962402344 228.11066674804687 114.26098962402344 Q 228.53066674804688 114.96898962402344 228.7106667480469 115.92898962402344 Q 228.89066674804687 116.88898962402344 228.89066674804687 118.01698962402344 Z M 237.71958813476562 125.74498962402343 Q 236.30358813476562 125.74498962402343 235.13958813476563 125.22898962402344 Q 233.97558813476562 124.71298962402344 233.1235881347656 123.81298962402344 Q 232.27158813476564 122.91298962402344 231.80358813476562 121.73698962402344 Q 231.33558813476563 120.56098962402343 231.33558813476563 119.24098962402344 Q 231.33558813476563 117.46498962402343 232.15158813476563 116.00098962402343 Q 232.96758813476563 114.53698962402343 234.41958813476563 113.64898962402344 Q 235.87158813476563 112.76098962402344 237.74358813476562 112.76098962402344 Q 239.63958813476563 112.76098962402344 241.04358813476563 113.66098962402344 Q 242.44758813476562 114.56098962402343 243.22758813476563 116.01298962402343 Q 244.00758813476563 117.46498962402343 244.00758813476563 119.14498962402344 Q 244.00758813476563 119.38498962402343 243.99558813476563 119.61298962402344 Q 243.98358813476563 119.84098962402344 243.95958813476562 119.96098962402344 L 233.56758813476563 119.96098962402344 Q 233.66358813476563 121.18498962402344 234.25158813476563 122.13298962402344 Q 234.83958813476562 123.08098962402343 235.77558813476563 123.62098962402344 Q 236.71158813476563 124.16098962402344 237.79158813476562 124.16098962402344 Q 238.94358813476563 124.16098962402344 239.96358813476562 123.58498962402344 Q 240.98358813476563 123.00898962402344 241.36758813476564 122.07298962402344 L 243.19158813476562 122.57698962402344 Q 242.78358813476564 123.48898962402343 241.97958813476563 124.20898962402343 Q 241.17558813476563 124.92898962402344 240.08358813476562 125.33698962402343 Q 238.99158813476564 125.74498962402343 237.71958813476562 125.74498962402343 Z M 233.49558813476563 118.49698962402344 L 242.03958813476564 118.49698962402344 Q 241.94358813476563 117.27298962402344 241.34358813476564 116.33698962402343 Q 240.74358813476562 115.40098962402344 239.80758813476564 114.87298962402343 Q 238.87158813476563 114.34498962402344 237.74358813476562 114.34498962402344 Q 236.63958813476563 114.34498962402344 235.70358813476562 114.87298962402343 Q 234.76758813476562 115.40098962402344 234.17958813476562 116.33698962402343 Q 233.59158813476563 117.27298962402344 233.49558813476563 118.49698962402344 Z M 262.77054943847656 112.04098962402344 Q 262.48254943847655 111.70498962402344 262.00254943847654 111.39298962402344 Q 261.5225494384766 111.08098962402343 260.92254943847655 110.82898962402344 Q 260.3225494384766 110.57698962402344 259.61454943847656 110.42098962402343 Q 258.9065494384766 110.26498962402344 258.13854943847656 110.26498962402344 Q 256.17054943847654 110.26498962402344 255.23454943847656 111.00898962402344 Q 254.29854943847656 111.75298962402344 254.29854943847656 113.04898962402343 Q 254.29854943847656 113.96098962402344 254.77854943847657 114.48898962402343 Q 255.25854943847656 115.01698962402344 256.25454943847654 115.35298962402344 Q 257.2505494384766 115.68898962402343 258.7865494384766 116.04898962402343 Q 260.56254943847654 116.43298962402343 261.8585494384766 116.98498962402344 Q 263.1545494384766 117.53698962402343 263.85054943847655 118.46098962402344 Q 264.5465494384766 119.38498962402343 264.5465494384766 120.92098962402343 Q 264.5465494384766 122.14498962402344 264.07854943847656 123.04498962402344 Q 263.61054943847654 123.94498962402344 262.77054943847656 124.53298962402344 Q 261.9305494384766 125.12098962402344 260.80254943847655 125.39698962402343 Q 259.67454943847656 125.67298962402344 258.35454943847657 125.67298962402344 Q 257.0585494384766 125.67298962402344 255.82254943847656 125.39698962402343 Q 254.58654943847657 125.12098962402344 253.48254943847655 124.59298962402343 Q 252.37854943847657 124.06498962402344 251.41854943847656 123.27298962402344 L 252.45054943847657 121.44898962402344 Q 252.83454943847656 121.85698962402344 253.44654943847655 122.25298962402344 Q 254.05854943847658 122.64898962402344 254.83854943847655 122.98498962402344 Q 255.61854943847655 123.32098962402344 256.53054943847656 123.52498962402343 Q 257.4425494384766 123.72898962402344 258.40254943847657 123.72898962402344 Q 260.2265494384766 123.72898962402344 261.23454943847656 123.06898962402343 Q 262.24254943847654 122.40898962402343 262.24254943847654 121.13698962402344 Q 262.24254943847654 120.17698962402343 261.6785494384766 119.60098962402344 Q 261.11454943847656 119.02498962402343 260.0105494384766 118.64098962402343 Q 258.9065494384766 118.25698962402343 257.3225494384766 117.87298962402343 Q 255.59454943847658 117.44098962402344 254.41854943847656 116.92498962402344 Q 253.24254943847657 116.40898962402343 252.65454943847655 115.56898962402343 Q 252.06654943847656 114.72898962402344 252.06654943847656 113.38498962402343 Q 252.06654943847656 111.75298962402344 252.85854943847656 110.62498962402344 Q 253.65054943847656 109.49698962402344 255.04254943847656 108.92098962402343 Q 256.43454943847655 108.34498962402344 258.18654943847656 108.34498962402344 Q 259.33854943847655 108.34498962402344 260.3345494384766 108.58498962402344 Q 261.33054943847657 108.82498962402343 262.19454943847654 109.25698962402343 Q 263.0585494384766 109.68898962402343 263.77854943847655 110.28898962402343 Z M 277.9086110839844 125.50498962402344 L 275.7966110839844 125.50498962402344 L 275.7966110839844 118.49698962402344 Q 275.7966110839844 116.57698962402344 275.11261108398435 115.61698962402343 Q 274.4286110839844 114.65698962402344 273.1566110839844 114.65698962402344 Q 272.34061108398436 114.65698962402344 271.5126110839844 115.08898962402344 Q 270.68461108398435 115.52098962402344 270.0606110839844 116.25298962402344 Q 269.43661108398436 116.98498962402344 269.14861108398435 117.94498962402344 L 269.14861108398435 125.50498962402344 L 267.0366110839844 125.50498962402344 L 267.0366110839844 107.98498962402344 L 269.14861108398435 107.98498962402344 L 269.14861108398435 115.66498962402343 Q 269.8926110839844 114.32098962402344 271.17661108398437 113.54098962402344 Q 272.46061108398436 112.76098962402344 273.94861108398436 112.76098962402344 Q 275.0766110839844 112.76098962402344 275.8326110839844 113.15698962402344 Q 276.58861108398435 113.55298962402344 277.04461108398436 114.27298962402344 Q 277.5006110839844 114.99298962402344 277.7046110839844 115.94098962402344 Q 277.9086110839844 116.88898962402344 277.9086110839844 118.01698962402344 Z M 286.6655324707031 125.74498962402343 Q 285.2495324707031 125.74498962402343 284.09753247070313 125.22898962402344 Q 282.94553247070314 124.71298962402344 282.1055324707031 123.81298962402344 Q 281.26553247070314 122.91298962402344 280.8095324707031 121.73698962402344 Q 280.3535324707031 120.56098962402343 280.3535324707031 119.26498962402344 Q 280.3535324707031 117.94498962402344 280.8095324707031 116.76898962402343 Q 281.26553247070314 115.59298962402343 282.1055324707031 114.69298962402344 Q 282.94553247070314 113.79298962402343 284.10953247070313 113.27698962402344 Q 285.2735324707031 112.76098962402344 286.6895324707031 112.76098962402344 Q 288.0815324707031 112.76098962402344 289.23353247070315 113.27698962402344 Q 290.38553247070314 113.79298962402343 291.2375324707031 114.69298962402344 Q 292.08953247070315 115.59298962402343 292.5455324707031 116.76898962402343 Q 293.0015324707031 117.94498962402344 293.0015324707031 119.26498962402344 Q 293.0015324707031 120.56098962402343 292.5455324707031 121.73698962402344 Q 292.08953247070315 122.91298962402344 291.2495324707031 123.81298962402344 Q 290.40953247070314 124.71298962402344 289.2455324707031 125.22898962402344 Q 288.0815324707031 125.74498962402343 286.6655324707031 125.74498962402343 Z M 282.5135324707031 119.28898962402344 Q 282.5135324707031 120.58498962402344 283.07753247070315 121.64098962402343 Q 283.6415324707031 122.69698962402343 284.57753247070315 123.30898962402344 Q 285.5135324707031 123.92098962402343 286.6655324707031 123.92098962402343 Q 287.8175324707031 123.92098962402343 288.76553247070314 123.29698962402344 Q 289.7135324707031 122.67298962402344 290.27753247070314 121.60498962402343 Q 290.8415324707031 120.53698962402343 290.8415324707031 119.24098962402344 Q 290.8415324707031 117.94498962402344 290.27753247070314 116.88898962402344 Q 289.7135324707031 115.83298962402344 288.76553247070314 115.20898962402345 Q 287.8175324707031 114.58498962402344 286.6655324707031 114.58498962402344 Q 285.5135324707031 114.58498962402344 284.57753247070315 115.22098962402343 Q 283.6415324707031 115.85698962402344 283.07753247070315 116.91298962402344 Q 282.5135324707031 117.96898962402344 282.5135324707031 119.28898962402344 Z M 302.297609375 125.74498962402343 Q 300.761609375 125.74498962402343 299.561609375 124.97698962402343 Q 298.361609375 124.20898962402343 297.665609375 123.03298962402344 L 297.665609375 130.61698962402343 L 295.553609375 130.61698962402343 L 295.553609375 112.97698962402343 L 297.425609375 112.97698962402343 L 297.425609375 115.32898962402344 Q 298.169609375 114.17698962402343 299.369609375 113.46898962402344 Q 300.569609375 112.76098962402344 301.985609375 112.76098962402344 Q 303.281609375 112.76098962402344 304.361609375 113.28898962402343 Q 305.441609375 113.81698962402344 306.233609375 114.72898962402344 Q 307.025609375 115.64098962402343 307.469609375 116.80498962402343 Q 307.913609375 117.96898962402344 307.913609375 119.24098962402344 Q 307.913609375 121.01698962402344 307.205609375 122.50498962402344 Q 306.497609375 123.99298962402344 305.225609375 124.86898962402344 Q 303.953609375 125.74498962402343 302.297609375 125.74498962402343 Z M 301.649609375 123.92098962402343 Q 302.585609375 123.92098962402343 303.341609375 123.52498962402343 Q 304.097609375 123.12898962402343 304.637609375 122.46898962402344 Q 305.177609375 121.80898962402344 305.465609375 120.96898962402344 Q 305.753609375 120.12898962402343 305.753609375 119.24098962402344 Q 305.753609375 118.30498962402343 305.429609375 117.46498962402343 Q 305.105609375 116.62498962402344 304.517609375 115.97698962402343 Q 303.929609375 115.32898962402344 303.149609375 114.95698962402344 Q 302.369609375 114.58498962402344 301.457609375 114.58498962402344 Q 300.881609375 114.58498962402344 300.269609375 114.80098962402343 Q 299.657609375 115.01698962402344 299.105609375 115.41298962402344 Q 298.553609375 115.80898962402344 298.169609375 116.31298962402343 Q 297.785609375 116.81698962402344 297.665609375 117.39298962402344 L 297.665609375 120.96898962402344 Q 298.025609375 121.78498962402344 298.625609375 122.45698962402344 Q 299.225609375 123.12898962402343 300.017609375 123.52498962402343 Q 300.809609375 123.92098962402343 301.649609375 123.92098962402343 Z" transform="matrix(1, 0, 0, 1, 0, 0)" style="fill: rgb(51, 51, 51); white-space: pre;"/>
  <path class="st0" d="M 71.634 135.097 C 76.372 136.538 81.405 137.312 86.787 137.312 C 109.604 137.312 125.519 122.74 125.519 95.089 L 125.519 12.603 L 134.177 8.947 L 134.177 96.531 C 134.177 124.747 117.619 141.172 94.218 141.172 C 86.085 141.172 78.422 138.959 71.634 135.097 M 61.746 126.756 C 67.012 128.3 72.278 129.279 76.899 129.279 C 96.09 129.279 108.844 118.671 108.844 94.779 L 108.844 18.884 L 117.386 15.333 L 117.386 95.399 C 117.386 120.422 102.994 133.243 82.927 133.243 C 75.553 133.243 68.007 130.823 61.746 126.756 M 55.721 119.238 C 60.342 120.474 64.613 121.245 68.357 121.245 C 83.276 121.245 92.403 114.089 92.403 95.243 L 92.403 25.269 L 100.828 21.716 L 100.828 94.06 C 100.828 115.221 89.829 124.851 74.032 124.851 C 67.362 124.851 61.102 122.893 55.721 119.238 M 84.564 97.149 L 84.564 28.153 L 47.588 42.827 L 47.588 98.849 C 47.588 109.558 55.252 116.715 66.485 116.715 C 77.661 116.715 84.564 109.403 84.564 97.149" style="fill: rgb(0, 38, 119);"/>
  <path class="st0" d="M 168.813 23.261 L 168.813 41.952 C 168.813 48.852 173.435 54.258 182.327 54.258 C 189.933 54.258 195.667 49.315 195.667 41.798 L 195.667 23.775 C 195.667 21.819 197.13 20.223 199.646 20.069 L 200.465 20.016 L 200.465 18.215 L 187.125 18.215 L 187.125 19.966 L 188.002 20.016 C 190.46 20.173 191.981 21.716 191.981 23.724 L 191.981 41.18 C 191.981 46.896 188.588 50.344 183.323 50.344 C 177.998 50.344 174.839 46.689 174.839 41.127 L 174.839 23.261 C 174.839 21.305 176.068 20.173 178.583 20.016 L 179.402 19.966 L 179.402 18.215 L 164.249 18.215 L 164.249 19.966 L 165.127 20.016 C 167.526 20.223 168.813 21.254 168.813 23.261" style="fill: rgb(0, 38, 119);"/>
  <path class="st0" d="M 186.833 63.115 L 187.71 63.165 C 189.816 63.268 191.454 64.041 191.454 66.153 L 191.454 77.12 L 176.477 77.12 L 176.477 66.153 C 176.477 64.041 178.056 63.319 180.221 63.165 L 181.041 63.115 L 181.041 61.364 L 165.77 61.364 L 165.77 63.115 L 166.648 63.165 C 168.755 63.268 170.392 64.041 170.392 66.153 L 170.392 91.846 C 170.392 93.957 168.813 94.728 166.648 94.832 L 165.77 94.883 L 165.77 96.635 L 180.924 96.635 L 180.924 94.883 L 180.106 94.832 C 177.998 94.677 176.361 93.957 176.361 91.846 L 176.361 79.848 L 191.338 79.848 L 191.338 91.846 C 191.338 93.957 189.758 94.728 187.594 94.832 L 186.715 94.883 L 186.715 96.635 L 201.869 96.635 L 201.869 94.883 L 201.049 94.832 C 198.943 94.677 197.305 93.957 197.305 91.846 L 197.305 66.153 C 197.305 64.041 198.884 63.319 201.049 63.165 L 201.869 63.115 L 201.869 61.364 L 186.833 61.364 L 186.833 63.115 Z" style="fill: rgb(0, 38, 119);"/>
  <path class="st0" d="M 200.407 28.564 L 200.407 30.212 L 201.576 30.263 C 203.332 30.366 204.443 31.139 204.443 33.251 L 204.443 48.748 C 204.443 50.859 203.214 51.632 201.283 51.735 L 200.407 51.787 L 200.407 53.485 L 213.979 53.485 L 213.979 51.787 L 213.161 51.735 C 211.229 51.632 210.001 50.859 210.001 48.748 L 210.001 40.509 C 210.118 34.486 213.102 30.83 216.553 30.83 C 219.245 30.83 221 32.426 221 35.568 L 221 48.748 C 221 50.859 219.771 51.632 217.841 51.735 L 216.963 51.787 L 216.963 53.485 L 230.537 53.485 L 230.537 51.787 L 229.718 51.735 C 227.786 51.632 226.558 50.859 226.558 48.748 L 226.558 35 C 226.558 31.088 223.808 27.792 218.368 27.792 C 214.506 27.792 211.229 29.8 209.884 33.404 L 209.884 27.896 L 200.407 28.564 Z" style="fill: rgb(0, 38, 119);"/>
  <path class="st0" d="M 278.687 54 C 284.479 54 287.756 50.551 289.042 46.585 L 286.586 45.968 C 285.416 48.696 283.426 50.808 279.448 50.808 C 274.826 50.808 271.666 46.945 271.666 40.768 L 289.453 40.768 L 289.453 39.326 C 289.453 32.838 285.123 27.586 278.103 27.586 C 270.613 27.586 265.64 33.869 265.64 40.768 C 265.64 47.719 270.439 54 278.687 54 M 278.044 30.47 C 281.204 30.47 283.192 33.043 283.426 38.347 L 271.726 38.347 C 272.369 33.456 274.65 30.47 278.044 30.47" style="fill: rgb(0, 38, 119);"/>
  <path class="st0" d="M 250.546 47.873 C 250.546 51.787 253.237 54 257.508 54 C 261.486 54 264.12 51.425 265.347 47.771 L 263.3 47.256 C 262.482 49.367 261.194 50.705 259.322 50.705 C 256.923 50.705 256.104 49.16 256.104 47.307 L 256.104 30.985 L 263.943 30.985 L 263.943 28.359 L 256.104 28.359 L 256.104 20.583 L 253.237 20.583 C 252.125 26.402 248.79 28.564 245.223 29.182 L 245.223 30.933 L 250.488 30.933 L 250.488 47.873 L 250.546 47.873 Z" style="fill: rgb(0, 38, 119);"/>
  <path class="st0" d="M 238.493 23.828 C 240.425 23.828 242.18 22.386 242.18 20.43 C 242.18 18.628 240.484 17.133 238.493 17.133 C 236.504 17.133 234.808 18.577 234.808 20.43 C 234.866 22.386 236.504 23.828 238.493 23.828" style="fill: rgb(0, 38, 119);"/>
  <path class="st0" d="M 235.92 33.251 L 235.92 48.748 C 235.92 50.859 234.691 51.632 232.76 51.735 L 231.882 51.787 L 231.882 53.485 L 245.456 53.485 L 245.456 51.787 L 244.636 51.735 C 242.707 51.632 241.478 50.859 241.478 48.748 L 241.478 27.896 L 231.59 28.564 L 231.59 30.212 L 232.994 30.263 C 234.808 30.316 235.92 31.139 235.92 33.251" style="fill: rgb(0, 38, 119);"/>
  <path class="st0" d="M 304.079 54 C 307.882 54 310.749 52.301 312.035 49.367 L 312.035 53.485 L 321.573 53.485 L 321.573 51.787 L 320.753 51.735 C 318.822 51.632 317.594 50.859 317.594 48.748 L 317.594 17.597 L 307.882 18.37 L 307.882 20.016 L 309.168 20.069 C 310.925 20.12 312.035 20.944 312.035 23.054 L 312.035 32.118 C 310.749 29.285 307.882 27.638 304.079 27.638 C 296.59 27.638 292.318 33.919 292.318 40.82 C 292.318 47.719 296.532 54 304.079 54 M 305.015 30.47 C 309.228 30.47 311.977 34.486 311.977 40.82 C 311.977 47.152 309.228 51.17 305.015 51.17 C 301.038 51.17 298.403 47.204 298.403 40.82 C 298.403 34.434 301.038 30.47 305.015 30.47" style="fill: rgb(0, 38, 119);"/>
  <path class="st0" d="M 389.264 70.837 C 385.93 70.837 383.062 72.744 381.834 76.192 L 381.834 71.044 L 372.239 71.713 L 372.239 73.361 L 373.409 73.411 C 375.164 73.514 376.275 74.287 376.275 76.398 L 376.275 91.898 C 376.275 94.008 375.047 94.779 373.116 94.883 L 372.239 94.935 L 372.239 96.635 L 385.753 96.635 L 385.753 94.935 L 384.935 94.883 C 383.004 94.779 381.775 94.008 381.775 91.898 L 381.775 83.453 C 381.892 77.171 384.993 73.206 388.737 73.206 C 389.615 73.206 390.141 73.411 390.61 73.875 C 389.615 74.34 389.031 75.162 389.031 76.244 C 389.031 77.685 390.376 78.922 392.073 78.922 C 393.71 78.922 395.115 77.737 395.115 75.987 C 395.174 72.795 392.482 70.837 389.264 70.837" style="fill: rgb(0, 38, 119);"/>
  <path class="st0" d="M 407.694 70.735 C 400.205 70.735 395.232 77.017 395.232 83.915 C 395.232 90.815 400.029 97.098 408.278 97.098 C 414.071 97.098 417.348 93.647 418.634 89.683 L 416.177 89.065 C 415.007 91.794 413.017 93.905 409.039 93.905 C 404.417 93.905 401.258 90.044 401.258 83.864 L 419.043 83.864 L 419.043 82.422 C 418.985 75.987 414.656 70.735 407.694 70.735 M 401.317 81.445 C 401.902 76.553 404.184 73.566 407.635 73.566 C 410.794 73.566 412.784 76.141 413.017 81.445 L 401.317 81.445 Z" style="fill: rgb(0, 38, 119);"/>
  <path class="st0" d="M 367.324 92.463 L 367.324 79.335 C 367.324 73.927 363.462 70.786 357.027 70.786 C 351.469 70.786 346.554 74.03 346.554 77.685 C 346.554 79.23 347.842 80.466 349.597 80.466 C 351.235 80.466 352.639 79.283 352.639 77.788 C 352.639 76.76 351.995 75.884 351.118 75.421 C 352.171 74.184 353.985 73.411 356.208 73.411 C 359.718 73.411 361.825 75.729 361.825 79.59 L 361.825 80.723 L 353.341 83.812 C 347.665 85.873 345.735 87.675 345.735 90.969 C 345.735 94.728 348.837 97.149 353.692 97.149 C 357.378 97.149 360.362 95.192 361.766 92.206 L 361.766 92.979 C 361.766 95.553 363.814 97.098 367.266 97.098 C 368.611 97.098 369.723 96.942 370.892 96.635 L 370.892 94.935 C 368.436 95.192 367.324 94.368 367.324 92.463 M 361.707 86.748 C 361.415 91.176 358.899 94.162 355.389 94.162 C 352.873 94.162 351.294 92.669 351.294 90.352 C 351.294 88.291 352.581 86.695 354.98 85.771 L 361.766 83.093 L 361.707 86.748 Z" style="fill: rgb(0, 38, 119);"/>
  <path class="st0" d="M 286.995 90.403 C 286.176 92.515 284.889 93.854 283.017 93.854 C 280.618 93.854 279.798 92.309 279.798 90.455 L 279.798 74.133 L 287.639 74.133 L 287.639 71.507 L 279.798 71.507 L 279.798 63.733 L 276.932 63.733 C 275.821 69.551 272.485 71.713 268.917 72.331 L 268.917 74.082 L 274.183 74.082 L 274.183 90.969 C 274.183 94.883 276.874 97.098 281.145 97.098 C 285.123 97.098 287.756 94.524 288.985 90.867 L 286.995 90.403 Z" style="fill: rgb(0, 38, 119);"/>
  <path class="st0" d="M 250.663 92.463 L 250.663 79.335 C 250.663 73.927 246.801 70.786 240.365 70.786 C 234.808 70.786 229.894 74.03 229.894 77.685 C 229.894 79.23 231.181 80.466 232.936 80.466 C 234.574 80.466 235.978 79.283 235.978 77.788 C 235.978 76.76 235.334 75.884 234.457 75.421 C 235.51 74.184 237.324 73.411 239.546 73.411 C 243.057 73.411 245.164 75.729 245.164 79.59 L 245.164 80.723 L 236.681 83.812 C 231.004 85.873 229.075 87.675 229.075 90.969 C 229.075 94.728 232.176 97.149 237.03 97.149 C 240.717 97.149 243.701 95.192 245.105 92.206 L 245.105 92.979 C 245.105 95.553 247.152 97.098 250.605 97.098 C 251.95 97.098 253.061 96.942 254.232 96.635 L 254.232 94.935 C 251.774 95.192 250.663 94.368 250.663 92.463 M 245.105 86.748 C 244.812 91.176 242.296 94.162 238.786 94.162 C 236.27 94.162 234.691 92.669 234.691 90.352 C 234.691 88.291 235.978 86.695 238.377 85.771 L 245.164 83.093 L 245.105 86.748 Z" style="fill: rgb(0, 38, 119);"/>
  <path class="st0" d="M 334.327 93.957 C 329.704 93.957 326.545 90.095 326.545 83.915 C 326.545 77.685 329.646 73.669 334.268 73.669 C 336.316 73.669 337.954 74.287 338.89 75.368 C 338.012 75.884 337.486 76.708 337.486 77.685 C 337.486 79.127 338.832 80.363 340.529 80.363 C 342.225 80.363 343.571 79.18 343.571 77.427 C 343.571 74.391 340.119 70.684 334.034 70.684 C 325.492 70.684 320.578 76.964 320.578 83.864 C 320.578 90.764 325.376 97.045 333.625 97.045 C 339.301 97.045 342.517 93.699 343.746 89.94 L 341.288 89.271 C 340.119 91.948 338.188 93.957 334.327 93.957" style="fill: rgb(0, 38, 119);"/>
  <path class="st0" d="M 265.173 91.898 L 265.173 60.694 L 255.46 61.466 L 255.46 63.115 L 256.748 63.165 C 258.503 63.217 259.614 64.041 259.614 66.153 L 259.614 91.898 C 259.614 94.008 258.385 94.779 256.455 94.883 L 255.577 94.935 L 255.577 96.635 L 269.15 96.635 L 269.15 94.935 L 268.331 94.883 C 266.401 94.779 265.173 94.008 265.173 91.898" style="fill: rgb(0, 38, 119);"/>
  <path class="st0" d="M 315.312 91.898 L 315.312 78.149 C 315.312 74.236 312.563 70.94 307.122 70.94 C 303.26 70.94 299.984 72.948 298.639 76.553 L 298.639 60.745 L 288.926 61.518 L 288.926 63.165 L 290.213 63.217 C 291.968 63.268 293.079 64.093 293.079 66.203 L 293.079 91.948 C 293.079 94.06 291.851 94.832 289.921 94.935 L 289.042 94.986 L 289.042 96.686 L 302.617 96.686 L 302.617 94.935 L 301.798 94.883 C 299.867 94.779 298.639 94.008 298.639 91.898 L 298.639 83.659 C 298.755 77.635 301.74 73.979 305.25 73.979 C 307.941 73.979 309.695 75.575 309.695 78.716 L 309.695 91.898 C 309.695 94.008 308.467 94.779 306.536 94.883 L 305.659 94.935 L 305.659 96.635 L 319.233 96.635 L 319.233 94.935 L 318.413 94.883 C 316.482 94.779 315.312 94.008 315.312 91.898" style="fill: rgb(0, 38, 119);"/>
  <path class="st0" d="M 215.559 70.735 C 208.071 70.735 203.098 77.017 203.098 83.915 C 203.098 90.815 207.895 97.098 216.145 97.098 C 221.936 97.098 225.212 93.647 226.499 89.683 L 224.042 89.065 C 222.873 91.794 220.883 93.905 216.905 93.905 C 212.283 93.905 209.124 90.044 209.124 83.864 L 226.91 83.864 L 226.91 82.422 C 226.91 75.987 222.52 70.735 215.559 70.735 M 209.183 81.445 C 209.767 76.553 212.049 73.566 215.5 73.566 C 218.66 73.566 220.649 76.141 220.883 81.445 L 209.183 81.445 Z" style="fill: rgb(0, 38, 119);"/>
  <text style="white-space: pre; fill: rgb(51, 51, 51); font-family: Arial, sans-serif; font-size: 16.3px;" x="318.976" y="116.997"> </text>
</svg>