<svg xmlns="http://www.w3.org/2000/svg" viewBox="0 0 605.48 186.38"><defs><style>.cls-1{fill:#002677;}.cls-2{fill:#fff;}</style></defs><title>Asset 1</title><g id="Layer_2" data-name="Layer 2"><g id="Layer_1-2" data-name="Layer 1"><path class="cls-1" d="M29.84,177.83h0a57.57,57.57,0,0,0,18.81,3.11c28.29,0,48-20.52,48-59.54V5.13L107.41,0V123.42c0,39.8-20.52,63-49.58,63a51.14,51.14,0,0,1-28-8.55M17.56,166h0c6.53,2.17,13.06,3.57,18.81,3.57,23.79,0,39.64-14.92,39.64-48.65V14L86.58,9V121.87c0,35.29-17.87,53.32-42.75,53.32-9.17,0-18.49-3.42-26.27-9.17M10.1,155.45h0a56.82,56.82,0,0,0,15.7,2.79c18.5,0,29.85-10.1,29.85-36.68V23l10.41-5V120c0,29.85-13.68,43.37-33.26,43.37a37,37,0,0,1-22.7-7.92m35.76-31.09V27.05L0,47.72v79c0,15.08,9.48,25.18,23.47,25.18s22.39-10.26,22.39-27.51"/><path class="cls-1" d="M166.45,26.88V63.16c0,13.4,7.92,23.86,23.08,23.86,13,0,22.79-9.58,22.79-24.15v-35a7,7,0,0,1,6.84-7.24l1.37-.09V17.1H197.75v3.43l1.47.09a7,7,0,0,1,6.84,7.24V61.79c0,11.06-5.77,17.8-14.77,17.8s-14.47-7.14-14.47-17.89V26.88c0-3.81,2.05-6,6.36-6.26l1.37-.09V17.1H158.63v3.43l1.47.09c4.2.3,6.35,2.35,6.35,6.26"/><path class="cls-1" d="M197.22,104.27l1.46.1c3.62.19,6.36,1.66,6.36,5.77v21.32H179.42V110.14c0-4.11,2.74-5.48,6.36-5.77l1.37-.1v-3.42H161.23v3.42l1.47.1c3.62.19,6.35,1.66,6.35,5.77V160c0,4.11-2.73,5.58-6.35,5.77l-1.47.1v3.42h25.92v-3.42l-1.37-.1c-3.62-.29-6.36-1.66-6.36-5.77V136.74H205V160c0,4.11-2.74,5.58-6.36,5.77l-1.46.1v3.42h25.91v-3.42l-1.37-.1c-3.61-.29-6.35-1.66-6.35-5.77V110.14c0-4.11,2.74-5.48,6.35-5.77l1.37-.1v-3.42H197.22Z"/><path class="cls-1" d="M220.44,37.15v3.23l1.95.09c3,.2,4.89,1.67,4.89,5.77V76.37c0,4.1-2.05,5.57-5.38,5.76l-1.46.1v3.33h23.17V82.23l-1.37-.1c-3.32-.19-5.37-1.66-5.37-5.76v-16c.19-11.74,5.28-18.78,11.24-18.78,4.6,0,7.63,3.13,7.63,9.19V76.37c0,4.1-2.05,5.57-5.38,5.76l-1.47.1v3.33h23.18V82.23l-1.37-.1c-3.32-.19-5.38-1.66-5.38-5.76V49.67c0-7.63-4.69-14-14-14-6.55,0-12.23,3.92-14.47,10.86V35.88Z"/><path class="cls-1" d="M354.21,86.54c9.88,0,15.46-6.75,17.71-14.38L367.71,71c-2,5.28-5.38,9.38-12.22,9.38-7.93,0-13.3-7.52-13.3-19.46H372.6V58.08c0-12.62-7.43-22.79-19.36-22.79-12.81,0-21.32,12.23-21.32,25.62s8.21,25.63,22.29,25.63m-1.07-45.67c5.38,0,8.8,5,9.19,15.25H342.38c1-9.48,4.89-15.25,10.76-15.25"/><path class="cls-1" d="M306.1,74.61c0,7.62,4.6,11.93,11.93,11.93,6.85,0,11.35-5,13.4-12.13l-3.52-1c-1.37,4.11-3.62,6.65-6.75,6.65-4.11,0-5.48-3-5.48-6.55V41.85h13.4V36.76h-13.4V21.7h-4.89C308.94,33,303.17,37.15,297.1,38.42v3.43h9Z"/><path class="cls-1" d="M285.56,28a6.46,6.46,0,0,0,0-12.91,6.32,6.32,0,0,0-6.25,6.36A6.37,6.37,0,0,0,285.56,28"/><path class="cls-1" d="M281.07,46.24V76.37c0,4.1-2.06,5.57-5.38,5.76l-1.47.1v3.33H297.4V82.23l-1.37-.1c-3.33-.19-5.38-1.66-5.38-5.76V35.88l-16.92,1.27v3.23l2.45.09c3,.1,4.89,1.67,4.89,5.77"/><path class="cls-1" d="M397.54,86.54c6.45,0,11.44-3.33,13.59-9v8h16.33V82.23l-1.37-.1c-3.32-.19-5.38-1.66-5.38-5.76V15.83L404.09,17.3v3.22l2.15.1c3,.1,4.89,1.67,4.89,5.77V44c-2.15-5.47-7.14-8.7-13.59-8.7-12.82,0-20.05,12.23-20.05,25.62s7.23,25.63,20.05,25.63m1.66-45.67c7.23,0,11.93,7.82,11.93,20s-4.7,20-11.93,20c-6.85,0-11.35-7.72-11.35-20s4.5-20,11.35-20"/><path class="cls-1" d="M543.11,119.23c-5.67,0-10.56,3.72-12.71,10.37v-10L514,120.9v3.22l1.95.1c3,.2,4.89,1.66,4.89,5.77v30.12c0,4.11-2,5.57-5.38,5.77L514,166v3.32h23.17V166l-1.37-.1c-3.32-.2-5.37-1.66-5.37-5.77V143.68c.19-12.22,5.47-19.85,11.93-19.85a3.92,3.92,0,0,1,3.22,1.27,5.09,5.09,0,0,0-2.74,4.6,5.22,5.22,0,0,0,5.19,5.18c2.84,0,5.18-2.35,5.18-5.67,0-6.16-4.59-10-10.07-10"/><path class="cls-1" d="M574.6,119c-12.81,0-21.32,12.22-21.32,25.62s8.21,25.62,22.3,25.62c9.87,0,15.45-6.75,17.7-14.37l-4.21-1.18c-2,5.28-5.38,9.39-12.22,9.39-7.92,0-13.3-7.53-13.3-19.46H594v-2.84c0-12.61-7.43-22.78-19.36-22.78m-10.86,20.83c1-9.49,4.89-15.26,10.76-15.26,5.38,0,8.8,5,9.19,15.26Z"/><path class="cls-1" d="M505.65,161.19V135.66c0-10.46-6.55-16.62-17.6-16.62-9.48,0-17.89,6.26-17.89,13.4a5.18,5.18,0,1,0,10.36.19,5.3,5.3,0,0,0-2.64-4.59c1.76-2.45,4.89-3.92,8.7-3.92,6,0,9.59,4.5,9.59,12v2.25l-14.48,6c-9.68,4-13,7.53-13,13.88,0,7.34,5.28,12,13.59,12a14.79,14.79,0,0,0,13.79-9.58v1.47c0,5,3.52,8,9.39,8a20.28,20.28,0,0,0,6.16-.88V166c-4.11.49-6-1.08-6-4.79m-9.58-11.05c-.49,8.6-4.79,14.37-10.76,14.37-4.3,0-7-2.93-7-7.43,0-4,2.15-7.14,6.26-8.9L496.17,143Z"/><path class="cls-2" d="M599.6,118.88a6,6,0,1,0,5.88,6,5.78,5.78,0,0,0-5.88-6m0,11a5,5,0,1,1,4.82-5,4.74,4.74,0,0,1-4.82,5"/><path class="cls-2" d="M601.38,125a1.45,1.45,0,0,0,1-1.6c0-1.2-.72-1.83-2.06-1.83H597.2v6.56h1V125.5H600c1,0,1.24.37,1.29,1.43a2.84,2.84,0,0,0,.2,1.21h1.18a1.74,1.74,0,0,1-.32-1c-.05-1.57-.2-1.86-1-2.15m-1.15-.37h-2v-2.15h1.92c.83,0,1.2.32,1.2,1a1,1,0,0,1-1.12,1.12"/><path class="cls-1" d="M368.35,157.18c-1.37,4.1-3.62,6.65-6.75,6.65-4.1,0-5.47-3-5.47-6.55V125.59h13.4V120.5h-13.4V105.44h-4.89c-1.86,11.35-7.63,15.46-13.69,16.73v3.42h9v32.76c0,7.63,4.59,11.93,11.93,11.93,6.84,0,11.34-5,13.39-12.12Z"/><path class="cls-1" d="M306.35,161.19V135.66c0-10.46-6.55-16.62-17.6-16.62-9.48,0-17.89,6.26-17.89,13.4a5.18,5.18,0,1,0,10.36.19,5.27,5.27,0,0,0-2.64-4.59c1.76-2.45,4.89-3.92,8.7-3.92,6,0,9.59,4.5,9.59,12v2.25l-14.48,6c-9.68,4-13,7.53-13,13.88,0,7.34,5.28,12,13.59,12a14.79,14.79,0,0,0,13.79-9.58v1.47c0,5,3.52,8,9.39,8a20.28,20.28,0,0,0,6.16-.88V166c-4.11.49-6-1.08-6-4.79m-9.58-11.05c-.49,8.6-4.79,14.37-10.76,14.37-4.3,0-7-2.93-7-7.43,0-4,2.15-7.14,6.26-8.9L296.87,143Z"/><path class="cls-1" d="M449.23,164.12c-7.92,0-13.3-7.53-13.3-19.46,0-12.13,5.28-19.85,13.2-19.85,3.52,0,6.26,1.17,7.92,3.32a5.42,5.42,0,0,0-2.44,4.5,5.21,5.21,0,0,0,5.18,5.18c2.93,0,5.18-2.34,5.18-5.67,0-5.87-5.86-13.1-16.33-13.1-14.57,0-23,12.22-23,25.62s8.21,25.62,22.3,25.62c9.68,0,15.15-6.45,17.31-13.79l-4.21-1.27c-1.86,5-5.18,8.9-11.83,8.9"/><path class="cls-1" d="M331.1,160.11V99.58L314.47,101v3.23l2.15.1c3,.1,4.89,1.66,4.89,5.77v50c0,4.11-2.05,5.57-5.38,5.77l-1.46.1v3.32h23.17V166l-1.37-.1c-3.32-.2-5.37-1.66-5.37-5.77"/><path class="cls-1" d="M416.76,160.11v-26.7c0-7.62-4.69-14-14-14-6.56,0-12.23,3.91-14.48,10.85V99.58L371.68,101v3.23l2.15.1c3,.1,4.89,1.66,4.89,5.77v50c0,4.11-2.05,5.57-5.38,5.77l-1.47.1v3.32h23.18V166l-1.37-.1c-3.32-.2-5.38-1.66-5.38-5.77v-16c.2-11.73,5.28-18.77,11.25-18.77,4.59,0,7.63,3.13,7.63,9.19v25.62c0,4.11-2.06,5.57-5.38,5.77l-1.47.1v3.32h23.18V166l-1.37-.1c-3.33-.2-5.38-1.66-5.38-5.77"/><path class="cls-1" d="M246.31,119C233.5,119,225,131.26,225,144.66s8.22,25.62,22.3,25.62c9.88,0,15.45-6.75,17.7-14.37l-4.21-1.18c-1.95,5.28-5.38,9.39-12.22,9.39-7.92,0-13.3-7.53-13.3-19.46h30.41v-2.84c0-12.61-7.43-22.78-19.36-22.78m-10.86,20.83c1-9.49,4.89-15.26,10.76-15.26,5.38,0,8.8,5,9.19,15.26Z"/></g></g></svg>