<?xml version="1.0" encoding="utf-8"?>
<svg viewBox="199.219 181.016 48.641 49.422" xmlns="http://www.w3.org/2000/svg">
  <path d="M 233.4 220.815 C 231.44 220.815 229.613 220.388 227.92 219.535 C 226.227 218.682 224.75 217.532 223.49 216.085 C 222.23 214.645 221.25 213.022 220.55 211.215 C 219.85 209.408 219.5 207.542 219.5 205.615 C 219.5 203.595 219.85 201.682 220.55 199.875 C 221.25 198.068 222.223 196.465 223.47 195.065 C 224.717 193.665 226.187 192.568 227.88 191.775 C 229.573 190.975 231.413 190.575 233.4 190.575 C 236.287 190.575 238.667 191.178 240.54 192.385 C 242.413 193.585 243.827 195.152 244.78 197.085 L 241.88 199.105 C 241.013 197.365 239.823 196.075 238.31 195.235 C 236.803 194.395 235.14 193.975 233.32 193.975 C 231.807 193.975 230.433 194.298 229.2 194.945 C 227.967 195.585 226.91 196.458 226.03 197.565 C 225.15 198.672 224.477 199.925 224.01 201.325 C 223.55 202.725 223.32 204.182 223.32 205.695 C 223.32 207.288 223.58 208.792 224.1 210.205 C 224.613 211.625 225.347 212.872 226.3 213.945 C 227.253 215.025 228.36 215.872 229.62 216.485 C 230.88 217.105 232.237 217.415 233.69 217.415 C 235.403 217.415 237.03 216.982 238.57 216.115 C 240.11 215.242 241.563 213.912 242.93 212.125 L 242.93 216.025 C 240.243 219.218 237.067 220.815 233.4 220.815 Z M 242.47 220.605 L 242.47 208.595 L 236.05 208.595 L 236.05 205.735 L 245.66 205.735 L 245.66 220.605 L 242.47 220.605 Z" transform="matrix(1, 0, 0, 1, 0, 0)" style="fill: rgb(227, 27, 109); white-space: pre;"/>
  <path d="M -219.659 220.605 L -223.439 220.605 L -223.439 190.825 L -219.659 190.825 L -219.659 207.295 L -204.289 190.785 L -200.209 190.785 L -212.179 203.935 L -199.539 220.605 L -203.779 220.605 L -214.579 206.195 L -219.659 211.495 L -219.659 220.605 Z" transform="matrix(-1, 0, 0, 1, 0, 0)" style="fill: rgb(14, 162, 160); white-space: pre;"/>
</svg>