<?xml version="1.0" encoding="utf-8"?>
<svg viewBox="14.408 136.576 371.455 132.225" xmlns="http://www.w3.org/2000/svg">
  <path class="st0" d="M 38.454 262.726 L 38.454 262.726 C 43.192 264.167 48.225 264.941 53.607 264.941 C 76.424 264.941 92.339 250.369 92.339 222.718 L 92.339 140.232 L 100.997 136.576 L 100.997 224.16 C 100.997 252.376 84.439 268.801 61.038 268.801 C 52.905 268.801 45.242 266.588 38.454 262.726 M 28.566 254.385 L 28.566 254.385 C 33.832 255.929 39.098 256.908 43.719 256.908 C 62.91 256.908 75.664 246.3 75.664 222.408 L 75.664 146.513 L 84.206 142.962 L 84.206 223.028 C 84.206 248.051 69.814 260.872 49.747 260.872 C 42.373 260.872 34.827 258.452 28.566 254.385 M 22.541 246.867 L 22.541 246.867 C 27.162 248.103 31.433 248.874 35.177 248.874 C 50.096 248.874 59.223 241.718 59.223 222.872 L 59.223 152.898 L 67.648 149.345 L 67.648 221.689 C 67.648 242.85 56.649 252.48 40.852 252.48 C 34.182 252.48 27.922 250.522 22.541 246.867 M 51.384 224.778 L 51.384 155.782 L 14.408 170.456 L 14.408 226.478 C 14.408 237.187 22.072 244.344 33.305 244.344 C 44.481 244.344 51.384 237.032 51.384 224.778" style="fill: rgb(0, 38, 119);"/>
  <path class="st0" d="M 135.633 150.89 L 135.633 169.581 C 135.633 176.481 140.255 181.887 149.147 181.887 C 156.753 181.887 162.487 176.944 162.487 169.427 L 162.487 151.404 C 162.487 149.448 163.95 147.852 166.466 147.698 L 167.285 147.645 L 167.285 145.844 L 153.945 145.844 L 153.945 147.595 L 154.822 147.645 C 157.28 147.802 158.801 149.345 158.801 151.353 L 158.801 168.809 C 158.801 174.525 155.408 177.973 150.143 177.973 C 144.818 177.973 141.659 174.318 141.659 168.756 L 141.659 150.89 C 141.659 148.934 142.888 147.802 145.403 147.645 L 146.222 147.595 L 146.222 145.844 L 131.069 145.844 L 131.069 147.595 L 131.947 147.645 C 134.346 147.852 135.633 148.883 135.633 150.89" style="fill: rgb(0, 38, 119);"/>
  <path class="st0" d="M 153.653 190.744 L 154.53 190.794 C 156.636 190.897 158.274 191.67 158.274 193.782 L 158.274 204.749 L 143.297 204.749 L 143.297 193.782 C 143.297 191.67 144.876 190.948 147.041 190.794 L 147.861 190.744 L 147.861 188.993 L 132.59 188.993 L 132.59 190.744 L 133.468 190.794 C 135.575 190.897 137.212 191.67 137.212 193.782 L 137.212 219.475 C 137.212 221.586 135.633 222.357 133.468 222.461 L 132.59 222.512 L 132.59 224.264 L 147.744 224.264 L 147.744 222.512 L 146.926 222.461 C 144.818 222.306 143.181 221.586 143.181 219.475 L 143.181 207.477 L 158.158 207.477 L 158.158 219.475 C 158.158 221.586 156.578 222.357 154.414 222.461 L 153.535 222.512 L 153.535 224.264 L 168.689 224.264 L 168.689 222.512 L 167.869 222.461 C 165.763 222.306 164.125 221.586 164.125 219.475 L 164.125 193.782 C 164.125 191.67 165.704 190.948 167.869 190.794 L 168.689 190.744 L 168.689 188.993 L 153.653 188.993 L 153.653 190.744 Z" style="fill: rgb(0, 38, 119);"/>
  <path class="st0" d="M 167.227 156.193 L 167.227 157.841 L 168.396 157.892 C 170.152 157.995 171.263 158.768 171.263 160.88 L 171.263 176.377 C 171.263 178.488 170.034 179.261 168.103 179.364 L 167.227 179.416 L 167.227 181.114 L 180.799 181.114 L 180.799 179.416 L 179.981 179.364 C 178.049 179.261 176.821 178.488 176.821 176.377 L 176.821 168.138 C 176.938 162.115 179.922 158.459 183.373 158.459 C 186.065 158.459 187.82 160.055 187.82 163.197 L 187.82 176.377 C 187.82 178.488 186.591 179.261 184.661 179.364 L 183.783 179.416 L 183.783 181.114 L 197.357 181.114 L 197.357 179.416 L 196.538 179.364 C 194.606 179.261 193.378 178.488 193.378 176.377 L 193.378 162.629 C 193.378 158.717 190.628 155.421 185.188 155.421 C 181.326 155.421 178.049 157.429 176.704 161.033 L 176.704 155.525 L 167.227 156.193 Z" style="fill: rgb(0, 38, 119);"/>
  <path class="st0" d="M 245.507 181.629 C 251.299 181.629 254.576 178.18 255.862 174.214 L 253.406 173.597 C 252.236 176.325 250.246 178.437 246.268 178.437 C 241.646 178.437 238.486 174.574 238.486 168.397 L 256.273 168.397 L 256.273 166.955 C 256.273 160.467 251.943 155.215 244.923 155.215 C 237.433 155.215 232.46 161.498 232.46 168.397 C 232.46 175.348 237.259 181.629 245.507 181.629 M 244.864 158.099 C 248.024 158.099 250.012 160.672 250.246 165.976 L 238.546 165.976 C 239.189 161.085 241.47 158.099 244.864 158.099" style="fill: rgb(0, 38, 119);"/>
  <path class="st0" d="M 217.366 175.502 C 217.366 179.416 220.057 181.629 224.328 181.629 C 228.306 181.629 230.94 179.054 232.167 175.4 L 230.12 174.885 C 229.302 176.996 228.014 178.334 226.142 178.334 C 223.743 178.334 222.924 176.789 222.924 174.936 L 222.924 158.614 L 230.763 158.614 L 230.763 155.988 L 222.924 155.988 L 222.924 148.212 L 220.057 148.212 C 218.945 154.031 215.61 156.193 212.043 156.811 L 212.043 158.562 L 217.308 158.562 L 217.308 175.502 Z" style="fill: rgb(0, 38, 119);"/>
  <path class="st0" d="M 205.313 151.457 C 207.245 151.457 209 150.015 209 148.059 C 209 146.257 207.304 144.762 205.313 144.762 C 203.324 144.762 201.628 146.206 201.628 148.059 C 201.686 150.015 203.324 151.457 205.313 151.457" style="fill: rgb(0, 38, 119);"/>
  <path class="st0" d="M 202.74 160.88 L 202.74 176.377 C 202.74 178.488 201.511 179.261 199.58 179.364 L 198.702 179.416 L 198.702 181.114 L 212.276 181.114 L 212.276 179.416 L 211.456 179.364 C 209.527 179.261 208.298 178.488 208.298 176.377 L 208.298 155.525 L 198.41 156.193 L 198.41 157.841 L 199.814 157.892 C 201.628 157.945 202.74 158.768 202.74 160.88" style="fill: rgb(0, 38, 119);"/>
  <path class="st0" d="M 270.899 181.629 C 274.702 181.629 277.569 179.93 278.855 176.996 L 278.855 181.114 L 288.393 181.114 L 288.393 179.416 L 287.573 179.364 C 285.642 179.261 284.414 178.488 284.414 176.377 L 284.414 145.226 L 274.702 145.999 L 274.702 147.645 L 275.988 147.698 C 277.745 147.749 278.855 148.573 278.855 150.683 L 278.855 159.747 C 277.569 156.914 274.702 155.267 270.899 155.267 C 263.41 155.267 259.138 161.548 259.138 168.449 C 259.138 175.348 263.352 181.629 270.899 181.629 M 271.835 158.099 C 276.048 158.099 278.797 162.115 278.797 168.449 C 278.797 174.781 276.048 178.799 271.835 178.799 C 267.858 178.799 265.223 174.833 265.223 168.449 C 265.223 162.063 267.858 158.099 271.835 158.099" style="fill: rgb(0, 38, 119);"/>
  <path class="st0" d="M 356.084 198.466 C 352.75 198.466 349.882 200.373 348.654 203.821 L 348.654 198.673 L 339.059 199.342 L 339.059 200.99 L 340.229 201.04 C 341.984 201.143 343.095 201.916 343.095 204.027 L 343.095 219.527 C 343.095 221.637 341.867 222.408 339.936 222.512 L 339.059 222.564 L 339.059 224.264 L 352.573 224.264 L 352.573 222.564 L 351.755 222.512 C 349.824 222.408 348.595 221.637 348.595 219.527 L 348.595 211.082 C 348.712 204.8 351.813 200.835 355.557 200.835 C 356.435 200.835 356.961 201.04 357.43 201.504 C 356.435 201.969 355.851 202.791 355.851 203.873 C 355.851 205.314 357.196 206.551 358.893 206.551 C 360.53 206.551 361.935 205.366 361.935 203.616 C 361.994 200.424 359.302 198.466 356.084 198.466" style="fill: rgb(0, 38, 119);"/>
  <path class="st0" d="M 374.514 198.364 C 367.025 198.364 362.052 204.646 362.052 211.544 C 362.052 218.444 366.849 224.727 375.098 224.727 C 380.891 224.727 384.168 221.276 385.454 217.312 L 382.997 216.694 C 381.827 219.423 379.837 221.534 375.859 221.534 C 371.237 221.534 368.078 217.673 368.078 211.493 L 385.863 211.493 L 385.863 210.051 C 385.805 203.616 381.476 198.364 374.514 198.364 M 368.137 209.074 C 368.722 204.182 371.004 201.195 374.455 201.195 C 377.614 201.195 379.604 203.77 379.837 209.074 L 368.137 209.074 Z" style="fill: rgb(0, 38, 119);"/>
  <path class="st0" d="M 334.144 220.092 L 334.144 206.964 C 334.144 201.556 330.282 198.415 323.847 198.415 C 318.289 198.415 313.374 201.659 313.374 205.314 C 313.374 206.859 314.662 208.095 316.417 208.095 C 318.055 208.095 319.459 206.912 319.459 205.417 C 319.459 204.389 318.815 203.513 317.938 203.05 C 318.991 201.813 320.805 201.04 323.028 201.04 C 326.538 201.04 328.645 203.358 328.645 207.219 L 328.645 208.352 L 320.161 211.441 C 314.485 213.502 312.555 215.304 312.555 218.598 C 312.555 222.357 315.657 224.778 320.512 224.778 C 324.198 224.778 327.182 222.821 328.586 219.835 L 328.586 220.608 C 328.586 223.182 330.634 224.727 334.086 224.727 C 335.431 224.727 336.543 224.571 337.712 224.264 L 337.712 222.564 C 335.256 222.821 334.144 221.997 334.144 220.092 M 328.527 214.377 C 328.235 218.805 325.719 221.791 322.209 221.791 C 319.693 221.791 318.114 220.298 318.114 217.981 C 318.114 215.92 319.401 214.324 321.8 213.4 L 328.586 210.722 L 328.527 214.377 Z" style="fill: rgb(0, 38, 119);"/>
  <path class="st0" d="M 253.815 218.032 C 252.996 220.144 251.709 221.483 249.837 221.483 C 247.438 221.483 246.618 219.938 246.618 218.084 L 246.618 201.762 L 254.459 201.762 L 254.459 199.136 L 246.618 199.136 L 246.618 191.362 L 243.752 191.362 C 242.641 197.18 239.305 199.342 235.737 199.96 L 235.737 201.711 L 241.003 201.711 L 241.003 218.598 C 241.003 222.512 243.694 224.727 247.965 224.727 C 251.943 224.727 254.576 222.153 255.805 218.496 L 253.815 218.032 Z" style="fill: rgb(0, 38, 119);"/>
  <path class="st0" d="M 217.483 220.092 L 217.483 206.964 C 217.483 201.556 213.621 198.415 207.185 198.415 C 201.628 198.415 196.714 201.659 196.714 205.314 C 196.714 206.859 198.001 208.095 199.756 208.095 C 201.394 208.095 202.798 206.912 202.798 205.417 C 202.798 204.389 202.154 203.513 201.277 203.05 C 202.33 201.813 204.144 201.04 206.366 201.04 C 209.877 201.04 211.984 203.358 211.984 207.219 L 211.984 208.352 L 203.501 211.441 C 197.824 213.502 195.895 215.304 195.895 218.598 C 195.895 222.357 198.996 224.778 203.85 224.778 C 207.537 224.778 210.521 222.821 211.925 219.835 L 211.925 220.608 C 211.925 223.182 213.972 224.727 217.425 224.727 C 218.77 224.727 219.881 224.571 221.052 224.264 L 221.052 222.564 C 218.594 222.821 217.483 221.997 217.483 220.092 M 211.925 214.377 C 211.632 218.805 209.116 221.791 205.606 221.791 C 203.09 221.791 201.511 220.298 201.511 217.981 C 201.511 215.92 202.798 214.324 205.197 213.4 L 211.984 210.722 L 211.925 214.377 Z" style="fill: rgb(0, 38, 119);"/>
  <path class="st0" d="M 301.147 221.586 C 296.524 221.586 293.365 217.724 293.365 211.544 C 293.365 205.314 296.466 201.298 301.088 201.298 C 303.136 201.298 304.774 201.916 305.71 202.997 C 304.832 203.513 304.306 204.337 304.306 205.314 C 304.306 206.756 305.652 207.992 307.349 207.992 C 309.045 207.992 310.391 206.809 310.391 205.056 C 310.391 202.02 306.939 198.313 300.854 198.313 C 292.312 198.313 287.398 204.593 287.398 211.493 C 287.398 218.393 292.196 224.674 300.445 224.674 C 306.121 224.674 309.337 221.328 310.566 217.569 L 308.108 216.9 C 306.939 219.577 305.008 221.586 301.147 221.586" style="fill: rgb(0, 38, 119);"/>
  <path class="st0" d="M 231.993 219.527 L 231.993 188.323 L 222.28 189.095 L 222.28 190.744 L 223.568 190.794 C 225.323 190.846 226.434 191.67 226.434 193.782 L 226.434 219.527 C 226.434 221.637 225.205 222.408 223.275 222.512 L 222.397 222.564 L 222.397 224.264 L 235.97 224.264 L 235.97 222.564 L 235.151 222.512 C 233.221 222.408 231.993 221.637 231.993 219.527" style="fill: rgb(0, 38, 119);"/>
  <path class="st0" d="M 282.132 219.527 L 282.132 205.778 C 282.132 201.865 279.383 198.569 273.942 198.569 C 270.08 198.569 266.804 200.577 265.459 204.182 L 265.459 188.374 L 255.746 189.147 L 255.746 190.794 L 257.033 190.846 C 258.788 190.897 259.899 191.722 259.899 193.832 L 259.899 219.577 C 259.899 221.689 258.671 222.461 256.741 222.564 L 255.862 222.615 L 255.862 224.315 L 269.437 224.315 L 269.437 222.564 L 268.618 222.512 C 266.687 222.408 265.459 221.637 265.459 219.527 L 265.459 211.288 C 265.575 205.264 268.56 201.608 272.07 201.608 C 274.761 201.608 276.515 203.204 276.515 206.345 L 276.515 219.527 C 276.515 221.637 275.287 222.408 273.356 222.512 L 272.479 222.564 L 272.479 224.264 L 286.053 224.264 L 286.053 222.564 L 285.233 222.512 C 283.302 222.408 282.132 221.637 282.132 219.527" style="fill: rgb(0, 38, 119);"/>
  <path class="st0" d="M 182.379 198.364 C 174.891 198.364 169.918 204.646 169.918 211.544 C 169.918 218.444 174.715 224.727 182.965 224.727 C 188.756 224.727 192.032 221.276 193.319 217.312 L 190.862 216.694 C 189.693 219.423 187.703 221.534 183.725 221.534 C 179.103 221.534 175.944 217.673 175.944 211.493 L 193.73 211.493 L 193.73 210.051 C 193.73 203.616 189.34 198.364 182.379 198.364 M 176.003 209.074 C 176.587 204.182 178.869 201.195 182.32 201.195 C 185.48 201.195 187.469 203.77 187.703 209.074 L 176.003 209.074 Z" style="fill: rgb(0, 38, 119);"/>
  <path d="M 178.376 307.607 L 182.576 307.607 L 182.576 324.237 C 182.576 326.137 182.169 327.797 181.356 329.217 C 180.536 330.644 179.356 331.74 177.816 332.507 C 176.276 333.274 174.433 333.657 172.286 333.657 C 169.099 333.657 166.623 332.814 164.856 331.127 C 163.083 329.44 162.196 327.12 162.196 324.167 L 162.196 307.607 L 166.416 307.607 L 166.416 323.867 C 166.416 325.987 166.909 327.55 167.896 328.557 C 168.883 329.57 170.393 330.077 172.426 330.077 C 176.393 330.077 178.376 327.997 178.376 323.837 L 178.376 307.607 ZM 209.409 307.607 L 209.409 333.307 L 205.189 333.307 L 205.189 321.727 L 193.339 321.727 L 193.339 333.307 L 189.139 333.307 L 189.139 307.607 L 193.339 307.607 L 193.339 318.117 L 205.189 318.117 L 205.189 307.607 L 209.409 307.607 ZM 238.988 320.427 C 238.988 324.607 237.941 327.857 235.848 330.177 C 233.754 332.497 230.794 333.657 226.968 333.657 C 223.088 333.657 220.108 332.507 218.028 330.207 C 215.948 327.9 214.908 324.627 214.908 320.387 C 214.908 316.147 215.951 312.89 218.038 310.617 C 220.131 308.344 223.118 307.207 226.998 307.207 C 230.818 307.207 233.771 308.36 235.858 310.667 C 237.944 312.974 238.988 316.227 238.988 320.427 Z M 219.368 320.427 C 219.368 323.587 220.008 325.984 221.288 327.617 C 222.561 329.257 224.454 330.077 226.968 330.077 C 229.461 330.077 231.344 329.267 232.618 327.647 C 233.884 326.027 234.518 323.62 234.518 320.427 C 234.518 317.274 233.888 314.88 232.628 313.247 C 231.368 311.62 229.491 310.807 226.998 310.807 C 224.478 310.807 222.578 311.62 221.298 313.247 C 220.011 314.88 219.368 317.274 219.368 320.427 ZM 261.167 320.637 L 261.167 333.307 L 257.017 333.307 L 257.017 321.357 C 257.017 319.857 256.714 318.737 256.107 317.997 C 255.507 317.257 254.551 316.887 253.237 316.887 C 251.491 316.887 250.214 317.404 249.407 318.437 C 248.594 319.47 248.187 321.197 248.187 323.617 L 248.187 333.307 L 244.057 333.307 L 244.057 313.867 L 247.297 313.867 L 247.877 316.417 L 248.087 316.417 C 248.674 315.49 249.504 314.774 250.577 314.267 C 251.657 313.767 252.854 313.517 254.167 313.517 C 258.834 313.517 261.167 315.89 261.167 320.637 ZM 275.394 333.657 C 272.374 333.657 270.01 332.777 268.304 331.017 C 266.597 329.25 265.744 326.82 265.744 323.727 C 265.744 320.554 266.537 318.057 268.124 316.237 C 269.704 314.424 271.877 313.517 274.644 313.517 C 277.21 313.517 279.237 314.294 280.724 315.847 C 282.21 317.407 282.954 319.554 282.954 322.287 L 282.954 324.517 L 270.004 324.517 C 270.057 326.404 270.567 327.854 271.534 328.867 C 272.494 329.88 273.847 330.387 275.594 330.387 C 276.74 330.387 277.807 330.28 278.794 330.067 C 279.787 329.847 280.854 329.487 281.994 328.987 L 281.994 332.337 C 280.98 332.817 279.96 333.157 278.934 333.357 C 277.9 333.557 276.72 333.657 275.394 333.657 Z M 274.644 316.647 C 273.33 316.647 272.277 317.06 271.484 317.887 C 270.697 318.72 270.227 319.934 270.074 321.527 L 278.894 321.527 C 278.874 319.92 278.487 318.707 277.734 317.887 C 276.987 317.06 275.957 316.647 274.644 316.647 ZM 312.251 326.327 C 312.251 328.614 311.424 330.407 309.771 331.707 C 308.117 333.007 305.837 333.657 302.931 333.657 C 300.031 333.657 297.654 333.207 295.801 332.307 L 295.801 328.337 C 296.974 328.884 298.217 329.317 299.531 329.637 C 300.851 329.95 302.081 330.107 303.221 330.107 C 304.881 330.107 306.107 329.79 306.901 329.157 C 307.687 328.524 308.081 327.674 308.081 326.607 C 308.081 325.647 307.721 324.834 307.001 324.167 C 306.274 323.5 304.774 322.71 302.501 321.797 C 300.154 320.844 298.501 319.757 297.541 318.537 C 296.581 317.324 296.101 315.86 296.101 314.147 C 296.101 312 296.861 310.314 298.381 309.087 C 299.907 307.854 301.954 307.237 304.521 307.237 C 306.981 307.237 309.427 307.777 311.861 308.857 L 310.531 312.287 C 308.244 311.327 306.204 310.847 304.411 310.847 C 303.051 310.847 302.021 311.14 301.321 311.727 C 300.614 312.32 300.261 313.104 300.261 314.077 C 300.261 314.744 300.401 315.314 300.681 315.787 C 300.967 316.267 301.431 316.717 302.071 317.137 C 302.717 317.557 303.877 318.114 305.551 318.807 C 307.437 319.594 308.821 320.327 309.701 321.007 C 310.581 321.68 311.227 322.447 311.641 323.307 C 312.047 324.16 312.251 325.167 312.251 326.327 ZM 333.889 320.637 L 333.889 333.307 L 329.739 333.307 L 329.739 321.357 C 329.739 319.857 329.436 318.737 328.829 317.997 C 328.229 317.257 327.273 316.887 325.959 316.887 C 324.226 316.887 322.953 317.407 322.139 318.447 C 321.319 319.48 320.909 321.217 320.909 323.657 L 320.909 333.307 L 316.779 333.307 L 316.779 305.957 L 320.909 305.957 L 320.909 312.897 C 320.909 314.01 320.839 315.2 320.699 316.467 L 320.969 316.467 C 321.529 315.527 322.309 314.8 323.309 314.287 C 324.316 313.774 325.486 313.517 326.819 313.517 C 331.533 313.517 333.889 315.89 333.889 320.637 ZM 356.876 323.547 C 356.876 326.727 356.059 329.207 354.426 330.987 C 352.799 332.767 350.532 333.657 347.626 333.657 C 345.812 333.657 344.206 333.247 342.806 332.427 C 341.412 331.607 340.342 330.43 339.596 328.897 C 338.842 327.364 338.466 325.58 338.466 323.547 C 338.466 320.4 339.276 317.94 340.896 316.167 C 342.509 314.4 344.789 313.517 347.736 313.517 C 350.549 313.517 352.776 314.42 354.416 316.227 C 356.056 318.04 356.876 320.48 356.876 323.547 Z M 342.726 323.547 C 342.726 328.04 344.382 330.287 347.696 330.287 C 350.976 330.287 352.616 328.04 352.616 323.547 C 352.616 319.107 350.966 316.887 347.666 316.887 C 345.926 316.887 344.669 317.46 343.896 318.607 C 343.116 319.76 342.726 321.407 342.726 323.547 ZM 371.471 333.657 C 369.011 333.657 367.101 332.774 365.741 331.007 L 365.501 331.007 C 365.661 332.647 365.741 333.644 365.741 333.997 L 365.741 341.957 L 361.611 341.957 L 361.611 313.867 L 364.951 313.867 C 365.044 314.227 365.238 315.094 365.531 316.467 L 365.741 316.467 C 367.034 314.5 368.968 313.517 371.541 313.517 C 373.968 313.517 375.858 314.394 377.211 316.147 C 378.564 317.907 379.241 320.374 379.241 323.547 C 379.241 326.727 378.554 329.207 377.181 330.987 C 375.801 332.767 373.898 333.657 371.471 333.657 Z M 370.471 316.887 C 368.831 316.887 367.634 317.367 366.881 318.327 C 366.121 319.287 365.741 320.824 365.741 322.937 L 365.741 323.547 C 365.741 325.914 366.118 327.63 366.871 328.697 C 367.618 329.757 368.841 330.287 370.541 330.287 C 371.974 330.287 373.078 329.7 373.851 328.527 C 374.624 327.354 375.011 325.684 375.011 323.517 C 375.011 321.337 374.628 319.687 373.861 318.567 C 373.088 317.447 371.958 316.887 370.471 316.887 Z" transform="matrix(0.8040280342102051, 0, 0, 0.6122799515724182, 2.8235630989074707, 52.9532356262207)" style="fill: rgb(0, 38, 119); white-space: pre;"/>
</svg>